<?xml version="1.0" encoding="UTF-8" standalone="no"?><svg xmlns="http://www.w3.org/2000/svg" xmlns:xlink="http://www.w3.org/1999/xlink" contentScriptType="application/ecmascript" contentStyleType="text/css" height="926px" preserveAspectRatio="none" style="width:882px;height:926px;" version="1.1" viewBox="0 0 882 926" width="882px" zoomAndPan="magnify"><defs><filter height="300%" id="f1bz6o34p35n2m" width="300%" x="-1" y="-1"><feGaussianBlur result="blurOut" stdDeviation="2.0"/><feColorMatrix in="blurOut" result="blurOut2" type="matrix" values="0 0 0 0 0 0 0 0 0 0 0 0 0 0 0 0 0 0 .4 0"/><feOffset dx="4.0" dy="4.0" in="blurOut2" result="blurOut3"/><feBlend in="SourceGraphic" in2="blurOut3" mode="normal"/></filter></defs><g><text fill="#FF0000" font-family="sans-serif" font-size="10" font-weight="bold" lengthAdjust="spacingAndGlyphs" textLength="178" x="353" y="20.3809">Actualizar Estatus de Odds/Matches</text><rect fill="#FFFFFF" filter="url(#f1bz6o34p35n2m)" height="691.125" style="stroke: #A80036; stroke-width: 1.0;" width="10" x="227" y="160.5938"/><rect fill="#FFFFFF" filter="url(#f1bz6o34p35n2m)" height="600.5703" style="stroke: #A80036; stroke-width: 1.0;" width="10" x="232" y="213.7969"/><rect fill="#FFFFFF" filter="url(#f1bz6o34p35n2m)" height="30.3516" style="stroke: #A80036; stroke-width: 1.0;" width="10" x="460" y="264"/><rect fill="#FFFFFF" filter="url(#f1bz6o34p35n2m)" height="30.3516" style="stroke: #A80036; stroke-width: 1.0;" width="10" x="460" y="324.7031"/><rect fill="#FFFFFF" filter="url(#f1bz6o34p35n2m)" height="30.3516" style="stroke: #A80036; stroke-width: 1.0;" width="10" x="460" y="385.4063"/><rect fill="#FFFFFF" filter="url(#f1bz6o34p35n2m)" height="331.9063" style="stroke: #A80036; stroke-width: 1.0;" width="10" x="551.5" y="446.1094"/><rect fill="#FFFFFF" filter="url(#f1bz6o34p35n2m)" height="217.8516" style="stroke: #A80036; stroke-width: 1.0;" width="10" x="659.5" y="486.4609"/><rect fill="#FEFECE" filter="url(#f1bz6o34p35n2m)" height="31.6094" style="stroke: #A80036; stroke-width: 1.5;" width="67" x="629" y="454.1094"/><text fill="#000000" font-family="sans-serif" font-size="14" lengthAdjust="spacingAndGlyphs" textLength="53" x="636" y="475.6426">Matches</text><rect fill="#FFFFFF" filter="url(#f1bz6o34p35n2m)" height="167.2422" style="stroke: #000000; stroke-width: 2.0;" width="386.5" x="484.5" y="507.7188"/><rect fill="#FFFFFF" filter="url(#f1bz6o34p35n2m)" height="120.8906" style="stroke: #000000; stroke-width: 2.0;" width="242" x="619" y="547.0703"/><rect fill="#FFFFFF" height="59.1875" style="stroke: none; stroke-width: 1.0;" width="242" x="619" y="608.7734"/><line style="stroke: #A80036; stroke-width: 1.0; stroke-dasharray: 5.0,5.0;" x1="49" x2="49" y1="79.1875" y2="869.7188"/><line style="stroke: #A80036; stroke-width: 1.0; stroke-dasharray: 5.0,5.0;" x1="231.5" x2="231.5" y1="79.1875" y2="869.7188"/><line style="stroke: #A80036; stroke-width: 1.0; stroke-dasharray: 5.0,5.0;" x1="464.5" x2="464.5" y1="79.1875" y2="869.7188"/><line style="stroke: #A80036; stroke-width: 1.0; stroke-dasharray: 5.0,5.0;" x1="556.5" x2="556.5" y1="79.1875" y2="869.7188"/><line style="stroke: #A80036; stroke-width: 1.0; stroke-dasharray: 5.0,5.0;" x1="664" x2="664" y1="487.4141" y2="869.7188"/><line style="stroke: #A80036; stroke-width: 1.0; stroke-dasharray: 5.0,5.0;" x1="811" x2="811" y1="79.1875" y2="869.7188"/><text fill="#000000" font-family="sans-serif" font-size="14" lengthAdjust="spacingAndGlyphs" textLength="76" x="8" y="76.1113">WEB/Mobile</text><path d="M28.5,33.5781 L28.5,57.5781 M28.5,45.5781 L45.5,45.5781 " fill="none" filter="url(#f1bz6o34p35n2m)" style="stroke: #A80036; stroke-width: 2.0;"/><ellipse cx="57.5" cy="45.5781" fill="#FEFECE" filter="url(#f1bz6o34p35n2m)" rx="12" ry="12" style="stroke: #A80036; stroke-width: 2.0;"/><text fill="#000000" font-family="sans-serif" font-size="14" lengthAdjust="spacingAndGlyphs" textLength="76" x="8" y="883.252">WEB/Mobile</text><path d="M28.5,890.3281 L28.5,914.3281 M28.5,902.3281 L45.5,902.3281 " fill="none" filter="url(#f1bz6o34p35n2m)" style="stroke: #A80036; stroke-width: 2.0;"/><ellipse cx="57.5" cy="902.3281" fill="#FEFECE" filter="url(#f1bz6o34p35n2m)" rx="12" ry="12" style="stroke: #A80036; stroke-width: 2.0;"/><text fill="#000000" font-family="sans-serif" font-size="14" lengthAdjust="spacingAndGlyphs" textLength="31" x="213.5" y="76.1113">odds</text><ellipse cx="232" cy="45.5781" fill="#FEFECE" filter="url(#f1bz6o34p35n2m)" rx="12" ry="12" style="stroke: #A80036; stroke-width: 2.0;"/><polygon fill="#A80036" points="228,33.5781,234,28.5781,232,33.5781,234,38.5781,228,33.5781" style="stroke: #A80036; stroke-width: 1.0;"/><text fill="#000000" font-family="sans-serif" font-size="14" lengthAdjust="spacingAndGlyphs" textLength="31" x="213.5" y="883.252">odds</text><ellipse cx="232" cy="902.3281" fill="#FEFECE" filter="url(#f1bz6o34p35n2m)" rx="12" ry="12" style="stroke: #A80036; stroke-width: 2.0;"/><polygon fill="#A80036" points="228,890.3281,234,885.3281,232,890.3281,234,895.3281,228,890.3281" style="stroke: #A80036; stroke-width: 1.0;"/><rect fill="#FEFECE" filter="url(#f1bz6o34p35n2m)" height="31.6094" style="stroke: #A80036; stroke-width: 1.5;" width="35" x="445.5" y="42.5781"/><text fill="#000000" font-family="sans-serif" font-size="14" lengthAdjust="spacingAndGlyphs" textLength="21" x="452.5" y="64.1113">req</text><rect fill="#FEFECE" filter="url(#f1bz6o34p35n2m)" height="31.6094" style="stroke: #A80036; stroke-width: 1.5;" width="35" x="445.5" y="868.7188"/><text fill="#000000" font-family="sans-serif" font-size="14" lengthAdjust="spacingAndGlyphs" textLength="21" x="452.5" y="890.252">req</text><rect fill="#FEFECE" filter="url(#f1bz6o34p35n2m)" height="31.6094" style="stroke: #A80036; stroke-width: 1.5;" width="120" x="494.5" y="42.5781"/><text fill="#000000" font-family="sans-serif" font-size="14" lengthAdjust="spacingAndGlyphs" textLength="106" x="501.5" y="64.1113">matchRepository</text><rect fill="#FEFECE" filter="url(#f1bz6o34p35n2m)" height="31.6094" style="stroke: #A80036; stroke-width: 1.5;" width="120" x="494.5" y="868.7188"/><text fill="#000000" font-family="sans-serif" font-size="14" lengthAdjust="spacingAndGlyphs" textLength="106" x="501.5" y="890.252">matchRepository</text><rect fill="#FEFECE" filter="url(#f1bz6o34p35n2m)" height="31.6094" style="stroke: #A80036; stroke-width: 1.5;" width="67" x="629" y="868.7188"/><text fill="#000000" font-family="sans-serif" font-size="14" lengthAdjust="spacingAndGlyphs" textLength="53" x="636" y="890.252">Matches</text><rect fill="#FEFECE" filter="url(#f1bz6o34p35n2m)" height="31.6094" style="stroke: #A80036; stroke-width: 1.5;" width="39" x="790" y="42.5781"/><text fill="#000000" font-family="sans-serif" font-size="14" lengthAdjust="spacingAndGlyphs" textLength="25" x="797" y="64.1113">utils</text><rect fill="#FEFECE" filter="url(#f1bz6o34p35n2m)" height="31.6094" style="stroke: #A80036; stroke-width: 1.5;" width="39" x="790" y="868.7188"/><text fill="#000000" font-family="sans-serif" font-size="14" lengthAdjust="spacingAndGlyphs" textLength="25" x="797" y="890.252">utils</text><rect fill="#FFFFFF" filter="url(#f1bz6o34p35n2m)" height="691.125" style="stroke: #A80036; stroke-width: 1.0;" width="10" x="227" y="160.5938"/><rect fill="#FFFFFF" filter="url(#f1bz6o34p35n2m)" height="600.5703" style="stroke: #A80036; stroke-width: 1.0;" width="10" x="232" y="213.7969"/><rect fill="#FFFFFF" filter="url(#f1bz6o34p35n2m)" height="30.3516" style="stroke: #A80036; stroke-width: 1.0;" width="10" x="460" y="264"/><rect fill="#FFFFFF" filter="url(#f1bz6o34p35n2m)" height="30.3516" style="stroke: #A80036; stroke-width: 1.0;" width="10" x="460" y="324.7031"/><rect fill="#FFFFFF" filter="url(#f1bz6o34p35n2m)" height="30.3516" style="stroke: #A80036; stroke-width: 1.0;" width="10" x="460" y="385.4063"/><rect fill="#FFFFFF" filter="url(#f1bz6o34p35n2m)" height="331.9063" style="stroke: #A80036; stroke-width: 1.0;" width="10" x="551.5" y="446.1094"/><rect fill="#FFFFFF" filter="url(#f1bz6o34p35n2m)" height="217.8516" style="stroke: #A80036; stroke-width: 1.0;" width="10" x="659.5" y="486.4609"/><polygon fill="#A80036" points="215,156.5938,225,160.5938,215,164.5938,219,160.5938" style="stroke: #A80036; stroke-width: 1.0;"/><line style="stroke: #A80036; stroke-width: 1.0;" x1="49" x2="221" y1="160.5938" y2="160.5938"/><text fill="#000000" font-family="sans-serif" font-size="13" lengthAdjust="spacingAndGlyphs" textLength="139" x="56" y="106.6826">[PUT] /matches/status {</text><text fill="#000000" font-family="sans-serif" font-size="13" lengthAdjust="spacingAndGlyphs" textLength="67" x="64" y="123.0342">active: true,</text><text fill="#000000" font-family="sans-serif" font-size="13" lengthAdjust="spacingAndGlyphs" textLength="139" x="64" y="139.3857">moneyType: realMoney,</text><text fill="#000000" font-family="sans-serif" font-size="13" lengthAdjust="spacingAndGlyphs" textLength="151" x="64" y="155.7373">matchesId[123, 456, 789]}</text><line style="stroke: #A80036; stroke-width: 1.0;" x1="237" x2="284" y1="200.7969" y2="200.7969"/><line style="stroke: #A80036; stroke-width: 1.0;" x1="284" x2="284" y1="200.7969" y2="213.7969"/><line style="stroke: #A80036; stroke-width: 1.0;" x1="243" x2="284" y1="213.7969" y2="213.7969"/><polygon fill="#A80036" points="253,209.7969,243,213.7969,253,217.7969,249,213.7969" style="stroke: #A80036; stroke-width: 1.0;"/><text fill="#000000" font-family="sans-serif" font-size="13" lengthAdjust="spacingAndGlyphs" textLength="209" x="249" y="195.9404">updateOddsStatus( req , res , next )</text><path d="M470,173.5938 L470,232.5938 L862,232.5938 L862,183.5938 L852,173.5938 L470,173.5938 " fill="#FBFB77" filter="url(#f1bz6o34p35n2m)" style="stroke: #A80036; stroke-width: 1.0;"/><path d="M852,173.5938 L852,183.5938 L862,183.5938 L852,173.5938 " fill="#FBFB77" style="stroke: #A80036; stroke-width: 1.0;"/><text fill="#000000" font-family="sans-serif" font-size="13" lengthAdjust="spacingAndGlyphs" textLength="264" x="476" y="192.0889">Verificar que se actualicen todos los matches</text><text fill="#000000" font-family="sans-serif" font-size="13" lengthAdjust="spacingAndGlyphs" textLength="371" x="476" y="208.4404">indicados por sus ids, pero se coloca el mismo estatus a todos.</text><text fill="#000000" font-family="sans-serif" font-size="13" lengthAdjust="spacingAndGlyphs" textLength="364" x="476" y="224.792">Y solo aplican para un tipo de juego (RealMoney o PlayMoney)</text><polygon fill="#A80036" points="448,260,458,264,448,268,452,264" style="stroke: #A80036; stroke-width: 1.0;"/><line style="stroke: #A80036; stroke-width: 1.0;" x1="242" x2="454" y1="264" y2="264"/><text fill="#000000" font-family="sans-serif" font-size="13" lengthAdjust="spacingAndGlyphs" textLength="69" x="249" y="259.1436">body[active]</text><polygon fill="#A80036" points="253,290.3516,243,294.3516,253,298.3516,249,294.3516" style="stroke: #A80036; stroke-width: 1.0;"/><line style="stroke: #A80036; stroke-width: 1.0; stroke-dasharray: 2.0,2.0;" x1="247" x2="464" y1="294.3516" y2="294.3516"/><text fill="#000000" font-family="sans-serif" font-size="13" lengthAdjust="spacingAndGlyphs" textLength="36" x="259" y="289.4951">status</text><polygon fill="#A80036" points="448,320.7031,458,324.7031,448,328.7031,452,324.7031" style="stroke: #A80036; stroke-width: 1.0;"/><line style="stroke: #A80036; stroke-width: 1.0;" x1="242" x2="454" y1="324.7031" y2="324.7031"/><text fill="#000000" font-family="sans-serif" font-size="13" lengthAdjust="spacingAndGlyphs" textLength="103" x="249" y="319.8467">body[moneyType]</text><polygon fill="#A80036" points="253,351.0547,243,355.0547,253,359.0547,249,355.0547" style="stroke: #A80036; stroke-width: 1.0;"/><line style="stroke: #A80036; stroke-width: 1.0; stroke-dasharray: 2.0,2.0;" x1="247" x2="464" y1="355.0547" y2="355.0547"/><text fill="#000000" font-family="sans-serif" font-size="13" lengthAdjust="spacingAndGlyphs" textLength="67" x="259" y="350.1982">moneyType</text><polygon fill="#A80036" points="448,381.4063,458,385.4063,448,389.4063,452,385.4063" style="stroke: #A80036; stroke-width: 1.0;"/><line style="stroke: #A80036; stroke-width: 1.0;" x1="242" x2="454" y1="385.4063" y2="385.4063"/><text fill="#000000" font-family="sans-serif" font-size="13" lengthAdjust="spacingAndGlyphs" textLength="103" x="249" y="380.5498">body[matchesIds]</text><polygon fill="#A80036" points="253,411.7578,243,415.7578,253,419.7578,249,415.7578" style="stroke: #A80036; stroke-width: 1.0;"/><line style="stroke: #A80036; stroke-width: 1.0; stroke-dasharray: 2.0,2.0;" x1="247" x2="464" y1="415.7578" y2="415.7578"/><text fill="#000000" font-family="sans-serif" font-size="13" lengthAdjust="spacingAndGlyphs" textLength="67" x="259" y="410.9014">matchesIds</text><polygon fill="#A80036" points="539.5,442.1094,549.5,446.1094,539.5,450.1094,543.5,446.1094" style="stroke: #A80036; stroke-width: 1.0;"/><line style="stroke: #A80036; stroke-width: 1.0;" x1="242" x2="545.5" y1="446.1094" y2="446.1094"/><text fill="#000000" font-family="sans-serif" font-size="13" lengthAdjust="spacingAndGlyphs" textLength="271" x="249" y="441.2529">updateStatus(matchesIds, moneyType, status)</text><polygon fill="#A80036" points="617,472.4609,627,476.4609,617,480.4609,621,476.4609" style="stroke: #A80036; stroke-width: 1.0;"/><line style="stroke: #A80036; stroke-width: 1.0;" x1="561.5" x2="623" y1="476.4609" y2="476.4609"/><text fill="#000000" font-family="sans-serif" font-size="13" lengthAdjust="spacingAndGlyphs" textLength="36" x="568.5" y="471.6045">create</text><rect fill="#FEFECE" filter="url(#f1bz6o34p35n2m)" height="31.6094" style="stroke: #A80036; stroke-width: 1.5;" width="67" x="629" y="454.1094"/><text fill="#000000" font-family="sans-serif" font-size="14" lengthAdjust="spacingAndGlyphs" textLength="53" x="636" y="475.6426">Matches</text><path d="M484.5,507.7188 L557.5,507.7188 L557.5,515.7188 L547.5,525.7188 L484.5,525.7188 L484.5,507.7188 " fill="#EEEEEE" style="stroke: #000000; stroke-width: 1.0;"/><rect fill="none" height="167.2422" style="stroke: #000000; stroke-width: 2.0;" width="386.5" x="484.5" y="507.7188"/><text fill="#000000" font-family="sans-serif" font-size="13" font-weight="bold" lengthAdjust="spacingAndGlyphs" textLength="28" x="499.5" y="522.2139">loop</text><text fill="#000000" font-family="sans-serif" font-size="11" font-weight="bold" lengthAdjust="spacingAndGlyphs" textLength="32" x="572.5" y="521.1377">[map]</text><polygon fill="#A80036" points="647.5,528.0703,657.5,532.0703,647.5,536.0703,651.5,532.0703" style="stroke: #A80036; stroke-width: 1.0;"/><line style="stroke: #A80036; stroke-width: 1.0;" x1="561.5" x2="653.5" y1="532.0703" y2="532.0703"/><path d="M619,547.0703 L680,547.0703 L680,555.0703 L670,565.0703 L619,565.0703 L619,547.0703 " fill="#EEEEEE" style="stroke: #000000; stroke-width: 1.0;"/><rect fill="none" height="120.8906" style="stroke: #000000; stroke-width: 2.0;" width="242" x="619" y="547.0703"/><text fill="#000000" font-family="sans-serif" font-size="13" font-weight="bold" lengthAdjust="spacingAndGlyphs" textLength="16" x="634" y="561.5654">alt</text><text fill="#000000" font-family="sans-serif" font-size="11" font-weight="bold" lengthAdjust="spacingAndGlyphs" textLength="161" x="695" y="560.4893">[moneyType === 'realMoney']</text><line style="stroke: #A80036; stroke-width: 1.0;" x1="669.5" x2="711.5" y1="587.7734" y2="587.7734"/><line style="stroke: #A80036; stroke-width: 1.0;" x1="711.5" x2="711.5" y1="587.7734" y2="600.7734"/><line style="stroke: #A80036; stroke-width: 1.0;" x1="670.5" x2="711.5" y1="600.7734" y2="600.7734"/><polygon fill="#A80036" points="680.5,596.7734,670.5,600.7734,680.5,604.7734,676.5,600.7734" style="stroke: #A80036; stroke-width: 1.0;"/><text fill="#000000" font-family="sans-serif" font-size="13" lengthAdjust="spacingAndGlyphs" textLength="120" x="676.5" y="582.917">[realMoney] = status</text><line style="stroke: #000000; stroke-width: 1.0; stroke-dasharray: 2.0,2.0;" x1="619" x2="861" y1="609.7734" y2="609.7734"/><text fill="#000000" font-family="sans-serif" font-size="11" font-weight="bold" lengthAdjust="spacingAndGlyphs" textLength="162" x="624" y="621.1924">[moneyType === 'playMoney']</text><line style="stroke: #A80036; stroke-width: 1.0;" x1="669.5" x2="711.5" y1="646.9609" y2="646.9609"/><line style="stroke: #A80036; stroke-width: 1.0;" x1="711.5" x2="711.5" y1="646.9609" y2="659.9609"/><line style="stroke: #A80036; stroke-width: 1.0;" x1="670.5" x2="711.5" y1="659.9609" y2="659.9609"/><polygon fill="#A80036" points="680.5,655.9609,670.5,659.9609,680.5,663.9609,676.5,659.9609" style="stroke: #A80036; stroke-width: 1.0;"/><text fill="#000000" font-family="sans-serif" font-size="13" lengthAdjust="spacingAndGlyphs" textLength="123" x="676.5" y="642.1045">[playMoney] = status</text><polygon fill="#A80036" points="572.5,700.3125,562.5,704.3125,572.5,708.3125,568.5,704.3125" style="stroke: #A80036; stroke-width: 1.0;"/><line style="stroke: #A80036; stroke-width: 1.0; stroke-dasharray: 2.0,2.0;" x1="566.5" x2="663.5" y1="704.3125" y2="704.3125"/><text fill="#000000" font-family="sans-serif" font-size="13" lengthAdjust="spacingAndGlyphs" textLength="50" x="578.5" y="699.4561">matches</text><line style="stroke: #A80036; stroke-width: 1.0;" x1="561.5" x2="603.5" y1="734.6641" y2="734.6641"/><line style="stroke: #A80036; stroke-width: 1.0;" x1="603.5" x2="603.5" y1="734.6641" y2="747.6641"/><line style="stroke: #A80036; stroke-width: 1.0;" x1="562.5" x2="603.5" y1="747.6641" y2="747.6641"/><polygon fill="#A80036" points="572.5,743.6641,562.5,747.6641,572.5,751.6641,568.5,747.6641" style="stroke: #A80036; stroke-width: 1.0;"/><text fill="#000000" font-family="sans-serif" font-size="13" lengthAdjust="spacingAndGlyphs" textLength="84" x="568.5" y="729.8076">save(matches)</text><polygon fill="#A80036" points="253,774.0156,243,778.0156,253,782.0156,249,778.0156" style="stroke: #A80036; stroke-width: 1.0;"/><line style="stroke: #A80036; stroke-width: 1.0; stroke-dasharray: 2.0,2.0;" x1="247" x2="555.5" y1="778.0156" y2="778.0156"/><text fill="#000000" font-family="sans-serif" font-size="13" lengthAdjust="spacingAndGlyphs" textLength="53" x="259" y="773.1592">response</text><line style="stroke: #A80036; stroke-width: 1.0; stroke-dasharray: 2.0,2.0;" x1="242" x2="284" y1="813.3672" y2="813.3672"/><line style="stroke: #A80036; stroke-width: 1.0; stroke-dasharray: 2.0,2.0;" x1="284" x2="284" y1="813.3672" y2="826.3672"/><line style="stroke: #A80036; stroke-width: 1.0; stroke-dasharray: 2.0,2.0;" x1="237" x2="284" y1="826.3672" y2="826.3672"/><polygon fill="#A80036" points="247,822.3672,237,826.3672,247,830.3672,243,826.3672" style="stroke: #A80036; stroke-width: 1.0;"/><text fill="#000000" font-family="sans-serif" font-size="13" lengthAdjust="spacingAndGlyphs" textLength="53" x="249" y="808.5107">response</text><polygon fill="#A80036" points="60,847.7188,50,851.7188,60,855.7188,56,851.7188" style="stroke: #A80036; stroke-width: 1.0;"/><line style="stroke: #A80036; stroke-width: 1.0; stroke-dasharray: 2.0,2.0;" x1="54" x2="231" y1="851.7188" y2="851.7188"/><text fill="#000000" font-family="sans-serif" font-size="13" lengthAdjust="spacingAndGlyphs" textLength="53" x="66" y="846.8623">response</text><!--
@startuml

title <font color=red size=10>Actualizar Estatus de Odds/Matches</font> 

boundary "WEB/Mobile" as ui order 5
control odds as controlador order 10
participant req order 12 
participant utils order 20
participant matchRepository as repo order 15

ui -> controlador : [PUT] /matches/status {  \n  active: true,\n  moneyType: realMoney,\n  matchesId[123, 456, 789]}
activate controlador
controlador -> controlador : updateOddsStatus( req , res , next )
note right  
	Verificar que se actualicen todos los matches 
	indicados por sus ids, pero se coloca el mismo estatus a todos.
	Y solo aplican para un tipo de juego (RealMoney o PlayMoney)
end note
activate controlador
controlador -> req : body[active]
activate req
return status
controlador -> req : body[moneyType]
activate req
return moneyType
controlador -> req : body[matchesIds]
activate req
return matchesIds
controlador -> repo : updateStatus(matchesIds, moneyType, status)


activate repo
create Matches order 15
repo -> Matches : create
  activate Matches
  loop map
  repo -> Matches : 
  alt moneyType === 'realMoney'
    Matches -> Matches : [realMoney] = status
  else moneyType === 'playMoney'
    Matches -> Matches : [playMoney] = status
  end

end loop
return matches

  repo -> repo : save(matches)

return response
return response
return response
@enduml

PlantUML version 1.2019.03(Sun Mar 10 07:04:44 BOT 2019)
(GPL source distribution)
Java Runtime: Java(TM) SE Runtime Environment
JVM: Java HotSpot(TM) Client VM
Java Version: 1.7.0_51-b13
Operating System: Windows 7
OS Version: 6.1
Default Encoding: Cp1252
Language: es
Country: VE
--></g></svg>