<?xml version="1.0" encoding="UTF-8" standalone="no"?><svg xmlns="http://www.w3.org/2000/svg" xmlns:xlink="http://www.w3.org/1999/xlink" contentScriptType="application/ecmascript" contentStyleType="text/css" height="681px" preserveAspectRatio="none" style="width:558px;height:681px;" version="1.1" viewBox="0 0 558 681" width="558px" zoomAndPan="magnify"><defs><filter height="300%" id="f4rb126x1ues1" width="300%" x="-1" y="-1"><feGaussianBlur result="blurOut" stdDeviation="2.0"/><feColorMatrix in="blurOut" result="blurOut2" type="matrix" values="0 0 0 0 0 0 0 0 0 0 0 0 0 0 0 0 0 0 .4 0"/><feOffset dx="4.0" dy="4.0" in="blurOut2" result="blurOut3"/><feBlend in="SourceGraphic" in2="blurOut3" mode="normal"/></filter></defs><g><text fill="#FF0000" font-family="sans-serif" font-size="10" font-weight="bold" lengthAdjust="spacingAndGlyphs" textLength="94" x="232.75" y="20.3809">Actualizar Leagues</text><rect fill="#FFFFFF" filter="url(#f4rb126x1ues1)" height="413.625" style="stroke: #A80036; stroke-width: 1.0;" width="10" x="175" y="193.2969"/><rect fill="#FFFFFF" filter="url(#f4rb126x1ues1)" height="337.9219" style="stroke: #A80036; stroke-width: 1.0;" width="10" x="180" y="231.6484"/><rect fill="#FFFFFF" filter="url(#f4rb126x1ues1)" height="30.3516" style="stroke: #A80036; stroke-width: 1.0;" width="10" x="413" y="267"/><rect fill="#FFFFFF" filter="url(#f4rb126x1ues1)" height="30.3516" style="stroke: #A80036; stroke-width: 1.0;" width="10" x="413" y="502.8672"/><rect fill="#FFFFFF" filter="url(#f4rb126x1ues1)" height="30.3516" style="stroke: #A80036; stroke-width: 1.0;" width="10" x="525" y="442.1641"/><line style="stroke: #A80036; stroke-width: 1.0; stroke-dasharray: 5.0,5.0;" x1="49" x2="49" y1="79.1875" y2="624.9219"/><line style="stroke: #A80036; stroke-width: 1.0; stroke-dasharray: 5.0,5.0;" x1="180" x2="180" y1="79.1875" y2="624.9219"/><line style="stroke: #A80036; stroke-width: 1.0; stroke-dasharray: 5.0,5.0;" x1="417.5" x2="417.5" y1="79.1875" y2="624.9219"/><line style="stroke: #A80036; stroke-width: 1.0; stroke-dasharray: 5.0,5.0;" x1="529.5" x2="529.5" y1="79.1875" y2="624.9219"/><text fill="#000000" font-family="sans-serif" font-size="14" lengthAdjust="spacingAndGlyphs" textLength="76" x="8" y="76.1113">WEB/Mobile</text><path d="M28.5,33.5781 L28.5,57.5781 M28.5,45.5781 L45.5,45.5781 " fill="none" filter="url(#f4rb126x1ues1)" style="stroke: #A80036; stroke-width: 2.0;"/><ellipse cx="57.5" cy="45.5781" fill="#FEFECE" filter="url(#f4rb126x1ues1)" rx="12" ry="12" style="stroke: #A80036; stroke-width: 2.0;"/><text fill="#000000" font-family="sans-serif" font-size="14" lengthAdjust="spacingAndGlyphs" textLength="76" x="8" y="638.4551">WEB/Mobile</text><path d="M28.5,645.5313 L28.5,669.5313 M28.5,657.5313 L45.5,657.5313 " fill="none" filter="url(#f4rb126x1ues1)" style="stroke: #A80036; stroke-width: 2.0;"/><ellipse cx="57.5" cy="657.5313" fill="#FEFECE" filter="url(#f4rb126x1ues1)" rx="12" ry="12" style="stroke: #A80036; stroke-width: 2.0;"/><text fill="#000000" font-family="sans-serif" font-size="14" lengthAdjust="spacingAndGlyphs" textLength="50" x="152" y="76.1113">leagues</text><ellipse cx="180" cy="45.5781" fill="#FEFECE" filter="url(#f4rb126x1ues1)" rx="12" ry="12" style="stroke: #A80036; stroke-width: 2.0;"/><polygon fill="#A80036" points="176,33.5781,182,28.5781,180,33.5781,182,38.5781,176,33.5781" style="stroke: #A80036; stroke-width: 1.0;"/><text fill="#000000" font-family="sans-serif" font-size="14" lengthAdjust="spacingAndGlyphs" textLength="50" x="152" y="638.4551">leagues</text><ellipse cx="180" cy="657.5313" fill="#FEFECE" filter="url(#f4rb126x1ues1)" rx="12" ry="12" style="stroke: #A80036; stroke-width: 2.0;"/><polygon fill="#A80036" points="176,645.5313,182,640.5313,180,645.5313,182,650.5313,176,645.5313" style="stroke: #A80036; stroke-width: 1.0;"/><rect fill="#FEFECE" filter="url(#f4rb126x1ues1)" height="31.6094" style="stroke: #A80036; stroke-width: 1.5;" width="157" x="337.5" y="42.5781"/><text fill="#000000" font-family="sans-serif" font-size="14" lengthAdjust="spacingAndGlyphs" textLength="143" x="344.5" y="64.1113">MinorGroupRepository</text><rect fill="#FEFECE" filter="url(#f4rb126x1ues1)" height="31.6094" style="stroke: #A80036; stroke-width: 1.5;" width="157" x="337.5" y="623.9219"/><text fill="#000000" font-family="sans-serif" font-size="14" lengthAdjust="spacingAndGlyphs" textLength="143" x="344.5" y="645.4551">MinorGroupRepository</text><rect fill="#FEFECE" filter="url(#f4rb126x1ues1)" height="31.6094" style="stroke: #A80036; stroke-width: 1.5;" width="39" x="508.5" y="42.5781"/><text fill="#000000" font-family="sans-serif" font-size="14" lengthAdjust="spacingAndGlyphs" textLength="25" x="515.5" y="64.1113">utils</text><rect fill="#FEFECE" filter="url(#f4rb126x1ues1)" height="31.6094" style="stroke: #A80036; stroke-width: 1.5;" width="39" x="508.5" y="623.9219"/><text fill="#000000" font-family="sans-serif" font-size="14" lengthAdjust="spacingAndGlyphs" textLength="25" x="515.5" y="645.4551">utils</text><rect fill="#FFFFFF" filter="url(#f4rb126x1ues1)" height="413.625" style="stroke: #A80036; stroke-width: 1.0;" width="10" x="175" y="193.2969"/><rect fill="#FFFFFF" filter="url(#f4rb126x1ues1)" height="337.9219" style="stroke: #A80036; stroke-width: 1.0;" width="10" x="180" y="231.6484"/><rect fill="#FFFFFF" filter="url(#f4rb126x1ues1)" height="30.3516" style="stroke: #A80036; stroke-width: 1.0;" width="10" x="413" y="267"/><rect fill="#FFFFFF" filter="url(#f4rb126x1ues1)" height="30.3516" style="stroke: #A80036; stroke-width: 1.0;" width="10" x="413" y="502.8672"/><rect fill="#FFFFFF" filter="url(#f4rb126x1ues1)" height="30.3516" style="stroke: #A80036; stroke-width: 1.0;" width="10" x="525" y="442.1641"/><polygon fill="#A80036" points="163,189.2969,173,193.2969,163,197.2969,167,193.2969" style="stroke: #A80036; stroke-width: 1.0;"/><line style="stroke: #A80036; stroke-width: 1.0;" x1="49" x2="169" y1="193.2969" y2="193.2969"/><text fill="#000000" font-family="sans-serif" font-size="13" lengthAdjust="spacingAndGlyphs" textLength="107" x="56" y="106.6826">[PUT] /api/leagues</text><text fill="#000000" font-family="sans-serif" font-size="13" lengthAdjust="spacingAndGlyphs" textLength="8" x="60" y="123.0342">[{</text><text fill="#000000" font-family="sans-serif" font-size="13" lengthAdjust="spacingAndGlyphs" textLength="98" x="60" y="139.3857">publicId: xxxxxx,</text><text fill="#000000" font-family="sans-serif" font-size="13" lengthAdjust="spacingAndGlyphs" textLength="72" x="60" y="155.7373">name: xxxx,</text><text fill="#000000" font-family="sans-serif" font-size="13" lengthAdjust="spacingAndGlyphs" textLength="95" x="60" y="172.0889">fullname: yyyyy,</text><text fill="#000000" font-family="sans-serif" font-size="13" lengthAdjust="spacingAndGlyphs" textLength="75" x="56" y="188.4404">active: true }]</text><line style="stroke: #A80036; stroke-width: 1.0;" x1="185" x2="232" y1="218.6484" y2="218.6484"/><line style="stroke: #A80036; stroke-width: 1.0;" x1="232" x2="232" y1="218.6484" y2="231.6484"/><line style="stroke: #A80036; stroke-width: 1.0;" x1="191" x2="232" y1="231.6484" y2="231.6484"/><polygon fill="#A80036" points="201,227.6484,191,231.6484,201,235.6484,197,231.6484" style="stroke: #A80036; stroke-width: 1.0;"/><text fill="#000000" font-family="sans-serif" font-size="13" lengthAdjust="spacingAndGlyphs" textLength="88" x="197" y="213.792">updateLeagues</text><polygon fill="#A80036" points="401,263,411,267,401,271,405,267" style="stroke: #A80036; stroke-width: 1.0;"/><line style="stroke: #A80036; stroke-width: 1.0;" x1="190" x2="407" y1="267" y2="267"/><text fill="#000000" font-family="sans-serif" font-size="13" lengthAdjust="spacingAndGlyphs" textLength="204" x="197" y="262.1436">findRecordsBeforeUpdate(req.body)</text><polygon fill="#A80036" points="201,293.3516,191,297.3516,201,301.3516,197,297.3516" style="stroke: #A80036; stroke-width: 1.0;"/><line style="stroke: #A80036; stroke-width: 1.0; stroke-dasharray: 2.0,2.0;" x1="195" x2="417" y1="297.3516" y2="297.3516"/><text fill="#000000" font-family="sans-serif" font-size="13" lengthAdjust="spacingAndGlyphs" textLength="45" x="207" y="292.4951">leagues</text><polygon fill="#A80036" points="513,438.1641,523,442.1641,513,446.1641,517,442.1641" style="stroke: #A80036; stroke-width: 1.0;"/><line style="stroke: #A80036; stroke-width: 1.0;" x1="190" x2="519" y1="442.1641" y2="442.1641"/><text fill="#000000" font-family="sans-serif" font-size="13" lengthAdjust="spacingAndGlyphs" textLength="145" x="197" y="322.8467">omitProperties(leagues, [</text><text fill="#000000" font-family="sans-serif" font-size="13" lengthAdjust="spacingAndGlyphs" textLength="61" x="197" y="339.1982">'startDate',</text><text fill="#000000" font-family="sans-serif" font-size="13" lengthAdjust="spacingAndGlyphs" textLength="56" x="197" y="355.5498">'endDate',</text><text fill="#000000" font-family="sans-serif" font-size="13" lengthAdjust="spacingAndGlyphs" textLength="64" x="197" y="371.9014">'createdAt',</text><text fill="#000000" font-family="sans-serif" font-size="13" lengthAdjust="spacingAndGlyphs" textLength="67" x="197" y="388.2529">'updatedAt',</text><text fill="#000000" font-family="sans-serif" font-size="13" lengthAdjust="spacingAndGlyphs" textLength="52" x="197" y="404.6045">'publicId',</text><text fill="#000000" font-family="sans-serif" font-size="13" lengthAdjust="spacingAndGlyphs" textLength="56" x="197" y="420.9561">'seasonId'</text><text fill="#000000" font-family="sans-serif" font-size="13" lengthAdjust="spacingAndGlyphs" textLength="12" x="197" y="437.3076">]);</text><polygon fill="#A80036" points="201,468.5156,191,472.5156,201,476.5156,197,472.5156" style="stroke: #A80036; stroke-width: 1.0;"/><line style="stroke: #A80036; stroke-width: 1.0; stroke-dasharray: 2.0,2.0;" x1="195" x2="529" y1="472.5156" y2="472.5156"/><text fill="#000000" font-family="sans-serif" font-size="13" lengthAdjust="spacingAndGlyphs" textLength="45" x="207" y="467.6592">leagues</text><polygon fill="#A80036" points="401,498.8672,411,502.8672,401,506.8672,405,502.8672" style="stroke: #A80036; stroke-width: 1.0;"/><line style="stroke: #A80036; stroke-width: 1.0;" x1="190" x2="407" y1="502.8672" y2="502.8672"/><text fill="#000000" font-family="sans-serif" font-size="13" lengthAdjust="spacingAndGlyphs" textLength="140" x="197" y="498.0107">createAndSave(leagues)</text><polygon fill="#A80036" points="201,529.2188,191,533.2188,201,537.2188,197,533.2188" style="stroke: #A80036; stroke-width: 1.0;"/><line style="stroke: #A80036; stroke-width: 1.0; stroke-dasharray: 2.0,2.0;" x1="195" x2="417" y1="533.2188" y2="533.2188"/><text fill="#000000" font-family="sans-serif" font-size="13" lengthAdjust="spacingAndGlyphs" textLength="82" x="207" y="528.3623">savedLeagues</text><line style="stroke: #A80036; stroke-width: 1.0; stroke-dasharray: 2.0,2.0;" x1="190" x2="232" y1="568.5703" y2="568.5703"/><line style="stroke: #A80036; stroke-width: 1.0; stroke-dasharray: 2.0,2.0;" x1="232" x2="232" y1="568.5703" y2="581.5703"/><line style="stroke: #A80036; stroke-width: 1.0; stroke-dasharray: 2.0,2.0;" x1="185" x2="232" y1="581.5703" y2="581.5703"/><polygon fill="#A80036" points="195,577.5703,185,581.5703,195,585.5703,191,581.5703" style="stroke: #A80036; stroke-width: 1.0;"/><text fill="#000000" font-family="sans-serif" font-size="13" lengthAdjust="spacingAndGlyphs" textLength="53" x="197" y="563.7139">response</text><polygon fill="#A80036" points="60,602.9219,50,606.9219,60,610.9219,56,606.9219" style="stroke: #A80036; stroke-width: 1.0;"/><line style="stroke: #A80036; stroke-width: 1.0; stroke-dasharray: 2.0,2.0;" x1="54" x2="179" y1="606.9219" y2="606.9219"/><text fill="#000000" font-family="sans-serif" font-size="13" lengthAdjust="spacingAndGlyphs" textLength="53" x="66" y="602.0654">response</text><!--
@startuml
title <font color=red size=10>Actualizar Leagues</font>

boundary "WEB/Mobile" as ui order 5
control leagues as leagues order 10
participant utils order 20
participant MinorGroupRepository as repo order 15

ui -> leagues : [PUT] /api/leagues\n [{\n publicId: xxxxxx,\n name: xxxx,\n fullname: yyyyy,\nactive: true }]
activate leagues
leagues -> leagues : updateLeagues
activate leagues
leagues -> repo : findRecordsBeforeUpdate(req.body)
activate repo
return leagues
leagues -> utils : omitProperties(leagues, [\n'startDate',\n'endDate',\n'createdAt',\n'updatedAt',\n'publicId',\n'seasonId'\n]);
activate utils
return leagues
leagues -> repo : createAndSave(leagues)
activate repo
return savedLeagues
return response
return response

@enduml

PlantUML version 1.2019.03(Sun Mar 10 07:04:44 BOT 2019)
(GPL source distribution)
Java Runtime: Java(TM) SE Runtime Environment
JVM: Java HotSpot(TM) Client VM
Java Version: 1.7.0_51-b13
Operating System: Windows 7
OS Version: 6.1
Default Encoding: Cp1252
Language: es
Country: VE
--></g></svg>