<?xml version="1.0" encoding="UTF-8" standalone="no"?><svg xmlns="http://www.w3.org/2000/svg" xmlns:xlink="http://www.w3.org/1999/xlink" contentScriptType="application/ecmascript" contentStyleType="text/css" height="593px" preserveAspectRatio="none" style="width:750px;height:593px;" version="1.1" viewBox="0 0 750 593" width="750px" zoomAndPan="magnify"><defs><filter height="300%" id="ffgxsm964a6h" width="300%" x="-1" y="-1"><feGaussianBlur result="blurOut" stdDeviation="2.0"/><feColorMatrix in="blurOut" result="blurOut2" type="matrix" values="0 0 0 0 0 0 0 0 0 0 0 0 0 0 0 0 0 0 .4 0"/><feOffset dx="4.0" dy="4.0" in="blurOut2" result="blurOut3"/><feBlend in="SourceGraphic" in2="blurOut3" mode="normal"/></filter></defs><g><text fill="#FF0000" font-family="sans-serif" font-size="15" font-weight="bold" lengthAdjust="spacingAndGlyphs" textLength="88" x="334" y="25.5713">Borrar Picks</text><rect fill="#FFFFFF" filter="url(#ffgxsm964a6h)" height="253.4609" style="stroke: #A80036; stroke-width: 1.0;" width="10" x="379" y="264.9922"/><rect fill="#FFFFFF" filter="url(#ffgxsm964a6h)" height="177.7578" style="stroke: #A80036; stroke-width: 1.0;" width="10" x="384" y="303.3438"/><rect fill="#FFFFFF" filter="url(#ffgxsm964a6h)" height="106.0547" style="stroke: #A80036; stroke-width: 1.0;" width="10" x="583" y="338.6953"/><rect fill="#FFFFFF" filter="url(#ffgxsm964a6h)" height="61.7031" style="stroke: #000000; stroke-width: 2.0;" width="266.5" x="472.5" y="353.6953"/><line style="stroke: #A80036; stroke-width: 1.0; stroke-dasharray: 5.0,5.0;" x1="49" x2="49" y1="85.4766" y2="536.4531"/><line style="stroke: #A80036; stroke-width: 1.0; stroke-dasharray: 5.0,5.0;" x1="384" x2="384" y1="85.4766" y2="536.4531"/><line style="stroke: #A80036; stroke-width: 1.0; stroke-dasharray: 5.0,5.0;" x1="587.5" x2="587.5" y1="85.4766" y2="536.4531"/><text fill="#000000" font-family="sans-serif" font-size="14" lengthAdjust="spacingAndGlyphs" textLength="76" x="8" y="82.4004">WEB/Mobile</text><path d="M28.5,39.8672 L28.5,63.8672 M28.5,51.8672 L45.5,51.8672 " fill="none" filter="url(#ffgxsm964a6h)" style="stroke: #A80036; stroke-width: 2.0;"/><ellipse cx="57.5" cy="51.8672" fill="#FEFECE" filter="url(#ffgxsm964a6h)" rx="12" ry="12" style="stroke: #A80036; stroke-width: 2.0;"/><text fill="#000000" font-family="sans-serif" font-size="14" lengthAdjust="spacingAndGlyphs" textLength="76" x="8" y="549.9863">WEB/Mobile</text><path d="M28.5,557.0625 L28.5,581.0625 M28.5,569.0625 L45.5,569.0625 " fill="none" filter="url(#ffgxsm964a6h)" style="stroke: #A80036; stroke-width: 2.0;"/><ellipse cx="57.5" cy="569.0625" fill="#FEFECE" filter="url(#ffgxsm964a6h)" rx="12" ry="12" style="stroke: #A80036; stroke-width: 2.0;"/><text fill="#000000" font-family="sans-serif" font-size="14" lengthAdjust="spacingAndGlyphs" textLength="80" x="341" y="82.4004">PicksKitchen</text><ellipse cx="384" cy="51.8672" fill="#FEFECE" filter="url(#ffgxsm964a6h)" rx="12" ry="12" style="stroke: #A80036; stroke-width: 2.0;"/><polygon fill="#A80036" points="380,39.8672,386,34.8672,384,39.8672,386,44.8672,380,39.8672" style="stroke: #A80036; stroke-width: 1.0;"/><text fill="#000000" font-family="sans-serif" font-size="14" lengthAdjust="spacingAndGlyphs" textLength="80" x="341" y="549.9863">PicksKitchen</text><ellipse cx="384" cy="569.0625" fill="#FEFECE" filter="url(#ffgxsm964a6h)" rx="12" ry="12" style="stroke: #A80036; stroke-width: 2.0;"/><polygon fill="#A80036" points="380,557.0625,386,552.0625,384,557.0625,386,562.0625,380,557.0625" style="stroke: #A80036; stroke-width: 1.0;"/><rect fill="#FEFECE" filter="url(#ffgxsm964a6h)" height="31.6094" style="stroke: #A80036; stroke-width: 1.5;" width="207" x="482.5" y="48.8672"/><text fill="#000000" font-family="sans-serif" font-size="14" lengthAdjust="spacingAndGlyphs" textLength="193" x="489.5" y="70.4004">customPicksKitchenRepository</text><rect fill="#FEFECE" filter="url(#ffgxsm964a6h)" height="31.6094" style="stroke: #A80036; stroke-width: 1.5;" width="207" x="482.5" y="535.4531"/><text fill="#000000" font-family="sans-serif" font-size="14" lengthAdjust="spacingAndGlyphs" textLength="193" x="489.5" y="556.9863">customPicksKitchenRepository</text><rect fill="#FFFFFF" filter="url(#ffgxsm964a6h)" height="253.4609" style="stroke: #A80036; stroke-width: 1.0;" width="10" x="379" y="264.9922"/><rect fill="#FFFFFF" filter="url(#ffgxsm964a6h)" height="177.7578" style="stroke: #A80036; stroke-width: 1.0;" width="10" x="384" y="303.3438"/><rect fill="#FFFFFF" filter="url(#ffgxsm964a6h)" height="106.0547" style="stroke: #A80036; stroke-width: 1.0;" width="10" x="583" y="338.6953"/><polygon fill="#A80036" points="367,260.9922,377,264.9922,367,268.9922,371,264.9922" style="stroke: #A80036; stroke-width: 1.0;"/><line style="stroke: #A80036; stroke-width: 1.0;" x1="49" x2="373" y1="264.9922" y2="264.9922"/><text fill="#000000" font-family="sans-serif" font-size="13" lengthAdjust="spacingAndGlyphs" textLength="146" x="56" y="112.9717">[DELETE] /api/v2/picks/ {</text><text fill="#000000" font-family="sans-serif" font-size="13" lengthAdjust="spacingAndGlyphs" textLength="4" x="72" y="129.3232">[</text><text fill="#000000" font-family="sans-serif" font-size="13" lengthAdjust="spacingAndGlyphs" textLength="4" x="76" y="145.6748">{</text><text fill="#000000" font-family="sans-serif" font-size="13" lengthAdjust="spacingAndGlyphs" textLength="287" x="80" y="162.0264">public_id: cfecd9f1-c6a2-44c4-94d5-f262778b3898</text><text fill="#000000" font-family="sans-serif" font-size="13" lengthAdjust="spacingAndGlyphs" textLength="8" x="76" y="178.3779">},</text><text fill="#000000" font-family="sans-serif" font-size="13" lengthAdjust="spacingAndGlyphs" textLength="4" x="76" y="194.7295">{</text><text fill="#000000" font-family="sans-serif" font-size="13" lengthAdjust="spacingAndGlyphs" textLength="287" x="80" y="211.0811">public_id: cfecd9f1-c6a2-44c4-94d5-f262778b3898</text><text fill="#000000" font-family="sans-serif" font-size="13" lengthAdjust="spacingAndGlyphs" textLength="4" x="76" y="227.4326">}</text><text fill="#000000" font-family="sans-serif" font-size="13" lengthAdjust="spacingAndGlyphs" textLength="4" x="60" y="243.7842">]</text><text fill="#000000" font-family="sans-serif" font-size="13" lengthAdjust="spacingAndGlyphs" textLength="4" x="68" y="260.1357">}</text><line style="stroke: #A80036; stroke-width: 1.0;" x1="389" x2="436" y1="290.3438" y2="290.3438"/><line style="stroke: #A80036; stroke-width: 1.0;" x1="436" x2="436" y1="290.3438" y2="303.3438"/><line style="stroke: #A80036; stroke-width: 1.0;" x1="395" x2="436" y1="303.3438" y2="303.3438"/><polygon fill="#A80036" points="405,299.3438,395,303.3438,405,307.3438,401,303.3438" style="stroke: #A80036; stroke-width: 1.0;"/><text fill="#000000" font-family="sans-serif" font-size="13" lengthAdjust="spacingAndGlyphs" textLength="145" x="401" y="285.4873">deletePicks(req,res,next)</text><polygon fill="#A80036" points="571,334.6953,581,338.6953,571,342.6953,575,338.6953" style="stroke: #A80036; stroke-width: 1.0;"/><line style="stroke: #A80036; stroke-width: 1.0;" x1="394" x2="577" y1="338.6953" y2="338.6953"/><text fill="#000000" font-family="sans-serif" font-size="13" lengthAdjust="spacingAndGlyphs" textLength="170" x="401" y="333.8389">deletePicks(picksID: object[])</text><path d="M472.5,353.6953 L545.5,353.6953 L545.5,361.6953 L535.5,371.6953 L472.5,371.6953 L472.5,353.6953 " fill="#EEEEEE" style="stroke: #000000; stroke-width: 1.0;"/><rect fill="none" height="61.7031" style="stroke: #000000; stroke-width: 2.0;" width="266.5" x="472.5" y="353.6953"/><text fill="#000000" font-family="sans-serif" font-size="13" font-weight="bold" lengthAdjust="spacingAndGlyphs" textLength="28" x="487.5" y="368.1904">loop</text><text fill="#000000" font-family="sans-serif" font-size="11" font-weight="bold" lengthAdjust="spacingAndGlyphs" textLength="75" x="560.5" y="367.1143">[picksID.map]</text><line style="stroke: #A80036; stroke-width: 1.0;" x1="593" x2="635" y1="394.3984" y2="394.3984"/><line style="stroke: #A80036; stroke-width: 1.0;" x1="635" x2="635" y1="394.3984" y2="407.3984"/><line style="stroke: #A80036; stroke-width: 1.0;" x1="594" x2="635" y1="407.3984" y2="407.3984"/><polygon fill="#A80036" points="604,403.3984,594,407.3984,604,411.3984,600,407.3984" style="stroke: #A80036; stroke-width: 1.0;"/><text fill="#000000" font-family="sans-serif" font-size="13" lengthAdjust="spacingAndGlyphs" textLength="127" x="600" y="389.542">delete( { id: publicID} )</text><polygon fill="#A80036" points="405,440.75,395,444.75,405,448.75,401,444.75" style="stroke: #A80036; stroke-width: 1.0;"/><line style="stroke: #A80036; stroke-width: 1.0; stroke-dasharray: 2.0,2.0;" x1="399" x2="587" y1="444.75" y2="444.75"/><text fill="#000000" font-family="sans-serif" font-size="13" lengthAdjust="spacingAndGlyphs" textLength="33" x="411" y="439.8936">Picks</text><line style="stroke: #A80036; stroke-width: 1.0; stroke-dasharray: 2.0,2.0;" x1="394" x2="436" y1="480.1016" y2="480.1016"/><line style="stroke: #A80036; stroke-width: 1.0; stroke-dasharray: 2.0,2.0;" x1="436" x2="436" y1="480.1016" y2="493.1016"/><line style="stroke: #A80036; stroke-width: 1.0; stroke-dasharray: 2.0,2.0;" x1="389" x2="436" y1="493.1016" y2="493.1016"/><polygon fill="#A80036" points="399,489.1016,389,493.1016,399,497.1016,395,493.1016" style="stroke: #A80036; stroke-width: 1.0;"/><text fill="#000000" font-family="sans-serif" font-size="13" lengthAdjust="spacingAndGlyphs" textLength="33" x="401" y="475.2451">Picks</text><polygon fill="#A80036" points="60,514.4531,50,518.4531,60,522.4531,56,518.4531" style="stroke: #A80036; stroke-width: 1.0;"/><line style="stroke: #A80036; stroke-width: 1.0; stroke-dasharray: 2.0,2.0;" x1="54" x2="383" y1="518.4531" y2="518.4531"/><text fill="#000000" font-family="sans-serif" font-size="13" lengthAdjust="spacingAndGlyphs" textLength="78" x="66" y="513.5967">{ status: 'ok' }</text><!--
@startuml

title <font color=red size=15> Borrar Picks</font>

boundary "WEB/Mobile" as ui 
control PicksKitchen as controlador
participant customPicksKitchenRepository as repo


ui -> controlador : [DELETE] /api/v2/picks/ {\n    [\n     {\n      public_id: cfecd9f1-c6a2-44c4-94d5-f262778b3898\n     },\n     {\n      public_id: cfecd9f1-c6a2-44c4-94d5-f262778b3898\n     }\n ]\n   }
activate controlador
controlador -> controlador : deletePicks(req,res,next)
activate controlador
controlador -> repo : deletePicks(picksID: object[])
activate repo
Loop picksID.map
repo -> repo : delete( { id: publicID} )
end
return Picks
return Picks
return { status: 'ok' }
@enduml

PlantUML version 1.2019.03(Sun Mar 10 07:04:44 BOT 2019)
(GPL source distribution)
Java Runtime: Java(TM) SE Runtime Environment
JVM: Java HotSpot(TM) Client VM
Java Version: 1.7.0_51-b13
Operating System: Windows 7
OS Version: 6.1
Default Encoding: Cp1252
Language: es
Country: VE
--></g></svg>