<?xml version="1.0" encoding="UTF-8" standalone="no"?><svg xmlns="http://www.w3.org/2000/svg" xmlns:xlink="http://www.w3.org/1999/xlink" contentScriptType="application/ecmascript" contentStyleType="text/css" height="1149px" preserveAspectRatio="none" style="width:762px;height:1149px;" version="1.1" viewBox="0 0 762 1149" width="762px" zoomAndPan="magnify"><defs><filter height="300%" id="fgzv7ogxq5zlt" width="300%" x="-1" y="-1"><feGaussianBlur result="blurOut" stdDeviation="2.0"/><feColorMatrix in="blurOut" result="blurOut2" type="matrix" values="0 0 0 0 0 0 0 0 0 0 0 0 0 0 0 0 0 0 .4 0"/><feOffset dx="4.0" dy="4.0" in="blurOut2" result="blurOut3"/><feBlend in="SourceGraphic" in2="blurOut3" mode="normal"/></filter></defs><g><text fill="#FF0000" font-family="sans-serif" font-size="20" font-weight="bold" lengthAdjust="spacingAndGlyphs" textLength="205" x="279" y="30.7617">Listar todos los Odds</text><rect fill="#FFFFFF" filter="url(#fgzv7ogxq5zlt)" height="920.0625" style="stroke: #A80036; stroke-width: 1.0;" width="10" x="167" y="154.4688"/><rect fill="#FFFFFF" filter="url(#fgzv7ogxq5zlt)" height="30.3516" style="stroke: #A80036; stroke-width: 1.0;" width="10" x="421" y="184.8203"/><rect fill="#FFFFFF" filter="url(#fgzv7ogxq5zlt)" height="30.3516" style="stroke: #A80036; stroke-width: 1.0;" width="10" x="421" y="245.5234"/><rect fill="#FFFFFF" filter="url(#fgzv7ogxq5zlt)" height="30.3516" style="stroke: #A80036; stroke-width: 1.0;" width="10" x="421" y="306.2266"/><rect fill="#FFFFFF" filter="url(#fgzv7ogxq5zlt)" height="30.3516" style="stroke: #A80036; stroke-width: 1.0;" width="10" x="421" y="366.9297"/><rect fill="#FFFFFF" filter="url(#fgzv7ogxq5zlt)" height="30.3516" style="stroke: #A80036; stroke-width: 1.0;" width="10" x="421" y="427.6328"/><rect fill="#FFFFFF" filter="url(#fgzv7ogxq5zlt)" height="30.3516" style="stroke: #A80036; stroke-width: 1.0;" width="10" x="421" y="488.3359"/><rect fill="#FFFFFF" filter="url(#fgzv7ogxq5zlt)" height="30.3516" style="stroke: #A80036; stroke-width: 1.0;" width="10" x="421" y="549.0391"/><rect fill="#FFFFFF" filter="url(#fgzv7ogxq5zlt)" height="30.3516" style="stroke: #A80036; stroke-width: 1.0;" width="10" x="593" y="609.7422"/><rect fill="#FFFFFF" filter="url(#fgzv7ogxq5zlt)" height="959.4141" style="stroke: #A80036; stroke-width: 1.0;" width="10" x="684.5" y="124.1172"/><rect fill="#FFFFFF" filter="url(#fgzv7ogxq5zlt)" height="291.9766" style="stroke: #A80036; stroke-width: 1.0;" width="10" x="732" y="752.2031"/><line style="stroke: #A80036; stroke-width: 1.0; stroke-dasharray: 5.0,5.0;" x1="49" x2="49" y1="91.7656" y2="1092.5313"/><line style="stroke: #A80036; stroke-width: 1.0; stroke-dasharray: 5.0,5.0;" x1="171.5" x2="171.5" y1="91.7656" y2="1092.5313"/><line style="stroke: #A80036; stroke-width: 1.0; stroke-dasharray: 5.0,5.0;" x1="425.5" x2="425.5" y1="91.7656" y2="1092.5313"/><line style="stroke: #A80036; stroke-width: 1.0; stroke-dasharray: 5.0,5.0;" x1="598" x2="598" y1="91.7656" y2="1092.5313"/><line style="stroke: #A80036; stroke-width: 1.0; stroke-dasharray: 5.0,5.0;" x1="689" x2="689" y1="91.7656" y2="1092.5313"/><line style="stroke: #A80036; stroke-width: 1.0; stroke-dasharray: 5.0,5.0;" x1="737" x2="737" y1="91.7656" y2="1092.5313"/><text fill="#000000" font-family="sans-serif" font-size="14" lengthAdjust="spacingAndGlyphs" textLength="76" x="8" y="88.6895">WEB/Mobile</text><path d="M28.5,46.1563 L28.5,70.1563 M28.5,58.1563 L45.5,58.1563 " fill="none" filter="url(#fgzv7ogxq5zlt)" style="stroke: #A80036; stroke-width: 2.0;"/><ellipse cx="57.5" cy="58.1563" fill="#FEFECE" filter="url(#fgzv7ogxq5zlt)" rx="12" ry="12" style="stroke: #A80036; stroke-width: 2.0;"/><text fill="#000000" font-family="sans-serif" font-size="14" lengthAdjust="spacingAndGlyphs" textLength="76" x="8" y="1106.0645">WEB/Mobile</text><path d="M28.5,1113.1406 L28.5,1137.1406 M28.5,1125.1406 L45.5,1125.1406 " fill="none" filter="url(#fgzv7ogxq5zlt)" style="stroke: #A80036; stroke-width: 2.0;"/><ellipse cx="57.5" cy="1125.1406" fill="#FEFECE" filter="url(#fgzv7ogxq5zlt)" rx="12" ry="12" style="stroke: #A80036; stroke-width: 2.0;"/><text fill="#000000" font-family="sans-serif" font-size="14" lengthAdjust="spacingAndGlyphs" textLength="31" x="153.5" y="88.6895">odds</text><ellipse cx="172" cy="58.1563" fill="#FEFECE" filter="url(#fgzv7ogxq5zlt)" rx="12" ry="12" style="stroke: #A80036; stroke-width: 2.0;"/><polygon fill="#A80036" points="168,46.1563,174,41.1563,172,46.1563,174,51.1563,168,46.1563" style="stroke: #A80036; stroke-width: 1.0;"/><text fill="#000000" font-family="sans-serif" font-size="14" lengthAdjust="spacingAndGlyphs" textLength="31" x="153.5" y="1106.0645">odds</text><ellipse cx="172" cy="1125.1406" fill="#FEFECE" filter="url(#fgzv7ogxq5zlt)" rx="12" ry="12" style="stroke: #A80036; stroke-width: 2.0;"/><polygon fill="#A80036" points="168,1113.1406,174,1108.1406,172,1113.1406,174,1118.1406,168,1113.1406" style="stroke: #A80036; stroke-width: 1.0;"/><rect fill="#FEFECE" filter="url(#fgzv7ogxq5zlt)" height="31.6094" style="stroke: #A80036; stroke-width: 1.5;" width="39" x="404.5" y="55.1563"/><text fill="#000000" font-family="sans-serif" font-size="14" lengthAdjust="spacingAndGlyphs" textLength="25" x="411.5" y="76.6895">utils</text><rect fill="#FEFECE" filter="url(#fgzv7ogxq5zlt)" height="31.6094" style="stroke: #A80036; stroke-width: 1.5;" width="39" x="404.5" y="1091.5313"/><text fill="#000000" font-family="sans-serif" font-size="14" lengthAdjust="spacingAndGlyphs" textLength="25" x="411.5" y="1113.0645">utils</text><rect fill="#FEFECE" filter="url(#fgzv7ogxq5zlt)" height="31.6094" style="stroke: #A80036; stroke-width: 1.5;" width="120" x="536" y="55.1563"/><text fill="#000000" font-family="sans-serif" font-size="14" lengthAdjust="spacingAndGlyphs" textLength="106" x="543" y="76.6895">MatchRepository</text><rect fill="#FEFECE" filter="url(#fgzv7ogxq5zlt)" height="31.6094" style="stroke: #A80036; stroke-width: 1.5;" width="120" x="536" y="1091.5313"/><text fill="#000000" font-family="sans-serif" font-size="14" lengthAdjust="spacingAndGlyphs" textLength="106" x="543" y="1113.0645">MatchRepository</text><rect fill="#FEFECE" filter="url(#fgzv7ogxq5zlt)" height="31.6094" style="stroke: #A80036; stroke-width: 1.5;" width="35" x="670" y="55.1563"/><text fill="#000000" font-family="sans-serif" font-size="14" lengthAdjust="spacingAndGlyphs" textLength="21" x="677" y="76.6895">API</text><rect fill="#FEFECE" filter="url(#fgzv7ogxq5zlt)" height="31.6094" style="stroke: #A80036; stroke-width: 1.5;" width="35" x="670" y="1091.5313"/><text fill="#000000" font-family="sans-serif" font-size="14" lengthAdjust="spacingAndGlyphs" textLength="21" x="677" y="1113.0645">API</text><rect fill="#FEFECE" filter="url(#fgzv7ogxq5zlt)" height="31.6094" style="stroke: #A80036; stroke-width: 1.5;" width="32" x="719" y="55.1563"/><text fill="#000000" font-family="sans-serif" font-size="14" lengthAdjust="spacingAndGlyphs" textLength="18" x="726" y="76.6895">util</text><rect fill="#FEFECE" filter="url(#fgzv7ogxq5zlt)" height="31.6094" style="stroke: #A80036; stroke-width: 1.5;" width="32" x="719" y="1091.5313"/><text fill="#000000" font-family="sans-serif" font-size="14" lengthAdjust="spacingAndGlyphs" textLength="18" x="726" y="1113.0645">util</text><rect fill="#FFFFFF" filter="url(#fgzv7ogxq5zlt)" height="920.0625" style="stroke: #A80036; stroke-width: 1.0;" width="10" x="167" y="154.4688"/><rect fill="#FFFFFF" filter="url(#fgzv7ogxq5zlt)" height="30.3516" style="stroke: #A80036; stroke-width: 1.0;" width="10" x="421" y="184.8203"/><rect fill="#FFFFFF" filter="url(#fgzv7ogxq5zlt)" height="30.3516" style="stroke: #A80036; stroke-width: 1.0;" width="10" x="421" y="245.5234"/><rect fill="#FFFFFF" filter="url(#fgzv7ogxq5zlt)" height="30.3516" style="stroke: #A80036; stroke-width: 1.0;" width="10" x="421" y="306.2266"/><rect fill="#FFFFFF" filter="url(#fgzv7ogxq5zlt)" height="30.3516" style="stroke: #A80036; stroke-width: 1.0;" width="10" x="421" y="366.9297"/><rect fill="#FFFFFF" filter="url(#fgzv7ogxq5zlt)" height="30.3516" style="stroke: #A80036; stroke-width: 1.0;" width="10" x="421" y="427.6328"/><rect fill="#FFFFFF" filter="url(#fgzv7ogxq5zlt)" height="30.3516" style="stroke: #A80036; stroke-width: 1.0;" width="10" x="421" y="488.3359"/><rect fill="#FFFFFF" filter="url(#fgzv7ogxq5zlt)" height="30.3516" style="stroke: #A80036; stroke-width: 1.0;" width="10" x="421" y="549.0391"/><rect fill="#FFFFFF" filter="url(#fgzv7ogxq5zlt)" height="30.3516" style="stroke: #A80036; stroke-width: 1.0;" width="10" x="593" y="609.7422"/><rect fill="#FFFFFF" filter="url(#fgzv7ogxq5zlt)" height="959.4141" style="stroke: #A80036; stroke-width: 1.0;" width="10" x="684.5" y="124.1172"/><rect fill="#FFFFFF" filter="url(#fgzv7ogxq5zlt)" height="291.9766" style="stroke: #A80036; stroke-width: 1.0;" width="10" x="732" y="752.2031"/><polygon fill="#A80036" points="160,120.1172,170,124.1172,160,128.1172,164,124.1172" style="stroke: #A80036; stroke-width: 1.0;"/><line style="stroke: #A80036; stroke-width: 1.0;" x1="49" x2="166" y1="124.1172" y2="124.1172"/><text fill="#000000" font-family="sans-serif" font-size="13" lengthAdjust="spacingAndGlyphs" textLength="99" x="56" y="119.2607">GET /api/v2/odds</text><polygon fill="#A80036" points="155,150.4688,165,154.4688,155,158.4688,159,154.4688" style="stroke: #A80036; stroke-width: 1.0;"/><line style="stroke: #A80036; stroke-width: 1.0;" x1="49" x2="161" y1="154.4688" y2="154.4688"/><text fill="#000000" font-family="sans-serif" font-size="13" lengthAdjust="spacingAndGlyphs" textLength="70" x="56" y="149.6123">getAllAction</text><polygon fill="#A80036" points="409,180.8203,419,184.8203,409,188.8203,413,184.8203" style="stroke: #A80036; stroke-width: 1.0;"/><line style="stroke: #A80036; stroke-width: 1.0;" x1="177" x2="415" y1="184.8203" y2="184.8203"/><text fill="#000000" font-family="sans-serif" font-size="13" lengthAdjust="spacingAndGlyphs" textLength="188" x="184" y="179.9639">getDateRanges(req.query, 'date')</text><polygon fill="#A80036" points="188,211.1719,178,215.1719,188,219.1719,184,215.1719" style="stroke: #A80036; stroke-width: 1.0;"/><line style="stroke: #A80036; stroke-width: 1.0; stroke-dasharray: 2.0,2.0;" x1="182" x2="425" y1="215.1719" y2="215.1719"/><text fill="#000000" font-family="sans-serif" font-size="13" lengthAdjust="spacingAndGlyphs" textLength="25" x="194" y="210.3154">date</text><polygon fill="#A80036" points="409,241.5234,419,245.5234,409,249.5234,413,245.5234" style="stroke: #A80036; stroke-width: 1.0;"/><line style="stroke: #A80036; stroke-width: 1.0;" x1="177" x2="415" y1="245.5234" y2="245.5234"/><text fill="#000000" font-family="sans-serif" font-size="13" lengthAdjust="spacingAndGlyphs" textLength="198" x="184" y="240.667">getUUIDValues(req.query, 'sports')</text><polygon fill="#A80036" points="188,271.875,178,275.875,188,279.875,184,275.875" style="stroke: #A80036; stroke-width: 1.0;"/><line style="stroke: #A80036; stroke-width: 1.0; stroke-dasharray: 2.0,2.0;" x1="182" x2="425" y1="275.875" y2="275.875"/><text fill="#000000" font-family="sans-serif" font-size="13" lengthAdjust="spacingAndGlyphs" textLength="36" x="194" y="271.0186">sports</text><polygon fill="#A80036" points="409,302.2266,419,306.2266,409,310.2266,413,306.2266" style="stroke: #A80036; stroke-width: 1.0;"/><line style="stroke: #A80036; stroke-width: 1.0;" x1="177" x2="415" y1="306.2266" y2="306.2266"/><text fill="#000000" font-family="sans-serif" font-size="13" lengthAdjust="spacingAndGlyphs" textLength="195" x="184" y="301.3701">getIntegerValues(req.query, 'limit')</text><polygon fill="#A80036" points="188,332.5781,178,336.5781,188,340.5781,184,336.5781" style="stroke: #A80036; stroke-width: 1.0;"/><line style="stroke: #A80036; stroke-width: 1.0; stroke-dasharray: 2.0,2.0;" x1="182" x2="425" y1="336.5781" y2="336.5781"/><text fill="#000000" font-family="sans-serif" font-size="13" lengthAdjust="spacingAndGlyphs" textLength="24" x="194" y="331.7217">limit</text><polygon fill="#A80036" points="409,362.9297,419,366.9297,409,370.9297,413,366.9297" style="stroke: #A80036; stroke-width: 1.0;"/><line style="stroke: #A80036; stroke-width: 1.0;" x1="177" x2="415" y1="366.9297" y2="366.9297"/><text fill="#000000" font-family="sans-serif" font-size="13" lengthAdjust="spacingAndGlyphs" textLength="207" x="184" y="362.0732">getUUIDValues(req.query, 'leagues')</text><polygon fill="#A80036" points="188,393.2813,178,397.2813,188,401.2813,184,397.2813" style="stroke: #A80036; stroke-width: 1.0;"/><line style="stroke: #A80036; stroke-width: 1.0; stroke-dasharray: 2.0,2.0;" x1="182" x2="425" y1="397.2813" y2="397.2813"/><text fill="#000000" font-family="sans-serif" font-size="13" lengthAdjust="spacingAndGlyphs" textLength="45" x="194" y="392.4248">leagues</text><polygon fill="#A80036" points="409,423.6328,419,427.6328,409,431.6328,413,427.6328" style="stroke: #A80036; stroke-width: 1.0;"/><line style="stroke: #A80036; stroke-width: 1.0;" x1="177" x2="415" y1="427.6328" y2="427.6328"/><text fill="#000000" font-family="sans-serif" font-size="13" lengthAdjust="spacingAndGlyphs" textLength="202" x="184" y="422.7764">getIntegerValues(req.query, 'offset')</text><polygon fill="#A80036" points="188,453.9844,178,457.9844,188,461.9844,184,457.9844" style="stroke: #A80036; stroke-width: 1.0;"/><line style="stroke: #A80036; stroke-width: 1.0; stroke-dasharray: 2.0,2.0;" x1="182" x2="425" y1="457.9844" y2="457.9844"/><text fill="#000000" font-family="sans-serif" font-size="13" lengthAdjust="spacingAndGlyphs" textLength="31" x="194" y="453.1279">offset</text><polygon fill="#A80036" points="409,484.3359,419,488.3359,409,492.3359,413,488.3359" style="stroke: #A80036; stroke-width: 1.0;"/><line style="stroke: #A80036; stroke-width: 1.0;" x1="177" x2="415" y1="488.3359" y2="488.3359"/><text fill="#000000" font-family="sans-serif" font-size="13" lengthAdjust="spacingAndGlyphs" textLength="225" x="184" y="483.4795">getUUIDValues(req.query, 'oddsTypes')</text><polygon fill="#A80036" points="188,514.6875,178,518.6875,188,522.6875,184,518.6875" style="stroke: #A80036; stroke-width: 1.0;"/><line style="stroke: #A80036; stroke-width: 1.0; stroke-dasharray: 2.0,2.0;" x1="182" x2="425" y1="518.6875" y2="518.6875"/><text fill="#000000" font-family="sans-serif" font-size="13" lengthAdjust="spacingAndGlyphs" textLength="63" x="194" y="513.8311">oddsTypes</text><polygon fill="#A80036" points="409,545.0391,419,549.0391,409,553.0391,413,549.0391" style="stroke: #A80036; stroke-width: 1.0;"/><line style="stroke: #A80036; stroke-width: 1.0;" x1="177" x2="415" y1="549.0391" y2="549.0391"/><text fill="#000000" font-family="sans-serif" font-size="13" lengthAdjust="spacingAndGlyphs" textLength="215" x="184" y="544.1826">getUUIDValues(req.query, 'countries')</text><polygon fill="#A80036" points="188,575.3906,178,579.3906,188,583.3906,184,579.3906" style="stroke: #A80036; stroke-width: 1.0;"/><line style="stroke: #A80036; stroke-width: 1.0; stroke-dasharray: 2.0,2.0;" x1="182" x2="425" y1="579.3906" y2="579.3906"/><text fill="#000000" font-family="sans-serif" font-size="13" lengthAdjust="spacingAndGlyphs" textLength="53" x="194" y="574.5342">countries</text><polygon fill="#A80036" points="581,605.7422,591,609.7422,581,613.7422,585,609.7422" style="stroke: #A80036; stroke-width: 1.0;"/><line style="stroke: #A80036; stroke-width: 1.0;" x1="177" x2="587" y1="609.7422" y2="609.7422"/><text fill="#000000" font-family="sans-serif" font-size="13" lengthAdjust="spacingAndGlyphs" textLength="397" x="184" y="604.8857">getAllOdds(date, sports, countries, leagues, oddsTypes, offset, limit)</text><polygon fill="#A80036" points="188,636.0938,178,640.0938,188,644.0938,184,640.0938" style="stroke: #A80036; stroke-width: 1.0;"/><line style="stroke: #A80036; stroke-width: 1.0; stroke-dasharray: 2.0,2.0;" x1="182" x2="597" y1="640.0938" y2="640.0938"/><text fill="#000000" font-family="sans-serif" font-size="13" lengthAdjust="spacingAndGlyphs" textLength="50" x="194" y="635.2373">matches</text><polygon fill="#A80036" points="720,748.2031,730,752.2031,720,756.2031,724,752.2031" style="stroke: #A80036; stroke-width: 1.0;"/><line style="stroke: #A80036; stroke-width: 1.0;" x1="177" x2="726" y1="752.2031" y2="752.2031"/><text fill="#000000" font-family="sans-serif" font-size="13" lengthAdjust="spacingAndGlyphs" textLength="152" x="184" y="665.5889">castCollection(matches,  {</text><text fill="#000000" font-family="sans-serif" font-size="13" lengthAdjust="spacingAndGlyphs" textLength="88" x="208" y="681.9404">val: parseFloat,</text><text fill="#000000" font-family="sans-serif" font-size="13" lengthAdjust="spacingAndGlyphs" textLength="87" x="208" y="698.292">o1: parseFloat,</text><text fill="#000000" font-family="sans-serif" font-size="13" lengthAdjust="spacingAndGlyphs" textLength="87" x="208" y="714.6436">o2: parseFloat,</text><text fill="#000000" font-family="sans-serif" font-size="13" lengthAdjust="spacingAndGlyphs" textLength="83" x="208" y="730.9951">o3: parseFloat</text><text fill="#000000" font-family="sans-serif" font-size="13" lengthAdjust="spacingAndGlyphs" textLength="56" x="200" y="747.3467">}, 'items');</text><polygon fill="#A80036" points="188,1040.1797,178,1044.1797,188,1048.1797,184,1044.1797" style="stroke: #A80036; stroke-width: 1.0;"/><line style="stroke: #A80036; stroke-width: 1.0; stroke-dasharray: 2.0,2.0;" x1="182" x2="736" y1="1044.1797" y2="1044.1797"/><text fill="#000000" font-family="sans-serif" font-size="13" lengthAdjust="spacingAndGlyphs" textLength="101" x="194" y="777.6982">response {items:[</text><text fill="#000000" font-family="sans-serif" font-size="13" lengthAdjust="spacingAndGlyphs" textLength="79" x="202" y="794.0498">{ oddsId: xxx,</text><text fill="#000000" font-family="sans-serif" font-size="13" lengthAdjust="spacingAndGlyphs" textLength="34" x="202" y="810.4014">val: 0,</text><text fill="#000000" font-family="sans-serif" font-size="13" lengthAdjust="spacingAndGlyphs" textLength="40" x="202" y="826.7529">01: nn,</text><text fill="#000000" font-family="sans-serif" font-size="13" lengthAdjust="spacingAndGlyphs" textLength="40" x="202" y="843.1045">o2: yy,</text><text fill="#000000" font-family="sans-serif" font-size="13" lengthAdjust="spacingAndGlyphs" textLength="40" x="202" y="859.4561">o3: zz,</text><text fill="#000000" font-family="sans-serif" font-size="13" lengthAdjust="spacingAndGlyphs" textLength="58" x="202" y="875.8076">matchId: ,</text><text fill="#000000" font-family="sans-serif" font-size="13" lengthAdjust="spacingAndGlyphs" textLength="99" x="202" y="892.1592">realMoney: false,</text><text fill="#000000" font-family="sans-serif" font-size="13" lengthAdjust="spacingAndGlyphs" textLength="97" x="202" y="908.5107">playMoney: true,</text><text fill="#000000" font-family="sans-serif" font-size="13" lengthAdjust="spacingAndGlyphs" textLength="79" x="202" y="924.8623">startDate: xx,</text><text fill="#000000" font-family="sans-serif" font-size="13" lengthAdjust="spacingAndGlyphs" textLength="119" x="202" y="941.2139">sportName: mmmm,</text><text fill="#000000" font-family="sans-serif" font-size="13" lengthAdjust="spacingAndGlyphs" textLength="46" x="202" y="957.5654">league:,</text><text fill="#000000" font-family="sans-serif" font-size="13" lengthAdjust="spacingAndGlyphs" textLength="68" x="202" y="973.917">oddsType: ,</text><text fill="#000000" font-family="sans-serif" font-size="13" lengthAdjust="spacingAndGlyphs" textLength="55" x="198" y="990.2686">country: ,</text><text fill="#000000" font-family="sans-serif" font-size="13" lengthAdjust="spacingAndGlyphs" textLength="67" x="198" y="1006.6201">description:</text><text fill="#000000" font-family="sans-serif" font-size="13" lengthAdjust="spacingAndGlyphs" textLength="4" x="202" y="1022.9717">}</text><text fill="#000000" font-family="sans-serif" font-size="13" lengthAdjust="spacingAndGlyphs" textLength="8" x="198" y="1039.3232">]}</text><polygon fill="#A80036" points="60,1070.5313,50,1074.5313,60,1078.5313,56,1074.5313" style="stroke: #A80036; stroke-width: 1.0;"/><line style="stroke: #A80036; stroke-width: 1.0; stroke-dasharray: 2.0,2.0;" x1="54" x2="171" y1="1074.5313" y2="1074.5313"/><text fill="#000000" font-family="sans-serif" font-size="13" lengthAdjust="spacingAndGlyphs" textLength="53" x="66" y="1069.6748">response</text><!--
@startuml
title <font color=red size=20>Listar todos los Odds</font>
boundary "WEB/Mobile" as UI
control odds as odds
participant utils
participant MatchRepository as repo
UI -> odds : GET /api/v2/odds
activate API
UI -> odds : getAllAction
activate odds
odds -> utils : getDateRanges(req.query, 'date')
activate utils
return date 
odds -> utils : getUUIDValues(req.query, 'sports')
activate utils
return sports
odds -> utils : getIntegerValues(req.query, 'limit')
activate utils
return limit
odds -> utils : getUUIDValues(req.query, 'leagues')
activate utils
return leagues
odds -> utils : getIntegerValues(req.query, 'offset')
activate utils
return offset
odds -> utils : getUUIDValues(req.query, 'oddsTypes')
activate utils
return oddsTypes
odds -> utils : getUUIDValues(req.query, 'countries')
activate utils
return countries
odds ->  repo : getAllOdds(date, sports, countries, leagues, oddsTypes, offset, limit)
activate repo
return matches
odds -> util : castCollection(matches,  {\n      val: parseFloat,\n      o1: parseFloat,\n      o2: parseFloat,\n      o3: parseFloat\n    }, 'items');
activate util
return response {items:[\n  { oddsId: xxx,\n  val: 0,\n  01: nn,\n  o2: yy,\n  o3: zz,\n  matchId: ,\n  realMoney: false,\n  playMoney: true,\n  startDate: xx,\n  sportName: mmmm,\n  league:,\n  oddsType: ,\n country: ,\n description: \n  }\n ]}
return response



@enduml

PlantUML version 1.2019.03(Sun Mar 10 07:04:44 BOT 2019)
(GPL source distribution)
Java Runtime: Java(TM) SE Runtime Environment
JVM: Java HotSpot(TM) Client VM
Java Version: 1.7.0_51-b13
Operating System: Windows 7
OS Version: 6.1
Default Encoding: Cp1252
Language: es
Country: VE
--></g></svg>