<?xml version="1.0" encoding="UTF-8" standalone="no"?><svg xmlns="http://www.w3.org/2000/svg" xmlns:xlink="http://www.w3.org/1999/xlink" contentScriptType="application/ecmascript" contentStyleType="text/css" height="819px" preserveAspectRatio="none" style="width:665px;height:819px;" version="1.1" viewBox="0 0 665 819" width="665px" zoomAndPan="magnify"><defs><filter height="300%" id="f1vku30iamhygq" width="300%" x="-1" y="-1"><feGaussianBlur result="blurOut" stdDeviation="2.0"/><feColorMatrix in="blurOut" result="blurOut2" type="matrix" values="0 0 0 0 0 0 0 0 0 0 0 0 0 0 0 0 0 0 .4 0"/><feOffset dx="4.0" dy="4.0" in="blurOut2" result="blurOut3"/><feBlend in="SourceGraphic" in2="blurOut3" mode="normal"/></filter></defs><g><text fill="#FF0000" font-family="sans-serif" font-size="10" font-weight="bold" lengthAdjust="spacingAndGlyphs" textLength="92" x="287.25" y="20.3809">Consultar Leagues</text><rect fill="#FFFFFF" filter="url(#f1vku30iamhygq)" height="551.3828" style="stroke: #A80036; stroke-width: 1.0;" width="10" x="212" y="193.2969"/><rect fill="#FFFFFF" filter="url(#f1vku30iamhygq)" height="344.8672" style="stroke: #A80036; stroke-width: 1.0;" width="10" x="217" y="231.6484"/><rect fill="#FFFFFF" filter="url(#f1vku30iamhygq)" height="30.3516" style="stroke: #A80036; stroke-width: 1.0;" width="10" x="461" y="267"/><rect fill="#FFFFFF" filter="url(#f1vku30iamhygq)" height="30.3516" style="stroke: #A80036; stroke-width: 1.0;" width="10" x="461" y="327.7031"/><rect fill="#FFFFFF" filter="url(#f1vku30iamhygq)" height="30.3516" style="stroke: #A80036; stroke-width: 1.0;" width="10" x="461" y="388.4063"/><rect fill="#FFFFFF" filter="url(#f1vku30iamhygq)" height="30.3516" style="stroke: #A80036; stroke-width: 1.0;" width="10" x="461" y="449.1094"/><rect fill="#FFFFFF" filter="url(#f1vku30iamhygq)" height="30.3516" style="stroke: #A80036; stroke-width: 1.0;" width="10" x="573" y="509.8125"/><line style="stroke: #A80036; stroke-width: 1.0; stroke-dasharray: 5.0,5.0;" x1="49" x2="49" y1="79.1875" y2="762.6797"/><line style="stroke: #A80036; stroke-width: 1.0; stroke-dasharray: 5.0,5.0;" x1="217" x2="217" y1="79.1875" y2="762.6797"/><line style="stroke: #A80036; stroke-width: 1.0; stroke-dasharray: 5.0,5.0;" x1="465.5" x2="465.5" y1="79.1875" y2="762.6797"/><line style="stroke: #A80036; stroke-width: 1.0; stroke-dasharray: 5.0,5.0;" x1="577.5" x2="577.5" y1="79.1875" y2="762.6797"/><text fill="#000000" font-family="sans-serif" font-size="14" lengthAdjust="spacingAndGlyphs" textLength="76" x="8" y="76.1113">WEB/Mobile</text><path d="M28.5,33.5781 L28.5,57.5781 M28.5,45.5781 L45.5,45.5781 " fill="none" filter="url(#f1vku30iamhygq)" style="stroke: #A80036; stroke-width: 2.0;"/><ellipse cx="57.5" cy="45.5781" fill="#FEFECE" filter="url(#f1vku30iamhygq)" rx="12" ry="12" style="stroke: #A80036; stroke-width: 2.0;"/><text fill="#000000" font-family="sans-serif" font-size="14" lengthAdjust="spacingAndGlyphs" textLength="76" x="8" y="776.2129">WEB/Mobile</text><path d="M28.5,783.2891 L28.5,807.2891 M28.5,795.2891 L45.5,795.2891 " fill="none" filter="url(#f1vku30iamhygq)" style="stroke: #A80036; stroke-width: 2.0;"/><ellipse cx="57.5" cy="795.2891" fill="#FEFECE" filter="url(#f1vku30iamhygq)" rx="12" ry="12" style="stroke: #A80036; stroke-width: 2.0;"/><text fill="#000000" font-family="sans-serif" font-size="14" lengthAdjust="spacingAndGlyphs" textLength="50" x="189" y="76.1113">leagues</text><ellipse cx="217" cy="45.5781" fill="#FEFECE" filter="url(#f1vku30iamhygq)" rx="12" ry="12" style="stroke: #A80036; stroke-width: 2.0;"/><polygon fill="#A80036" points="213,33.5781,219,28.5781,217,33.5781,219,38.5781,213,33.5781" style="stroke: #A80036; stroke-width: 1.0;"/><text fill="#000000" font-family="sans-serif" font-size="14" lengthAdjust="spacingAndGlyphs" textLength="50" x="189" y="776.2129">leagues</text><ellipse cx="217" cy="795.2891" fill="#FEFECE" filter="url(#f1vku30iamhygq)" rx="12" ry="12" style="stroke: #A80036; stroke-width: 2.0;"/><polygon fill="#A80036" points="213,783.2891,219,778.2891,217,783.2891,219,788.2891,213,783.2891" style="stroke: #A80036; stroke-width: 1.0;"/><rect fill="#FEFECE" filter="url(#f1vku30iamhygq)" height="31.6094" style="stroke: #A80036; stroke-width: 1.5;" width="39" x="444.5" y="42.5781"/><text fill="#000000" font-family="sans-serif" font-size="14" lengthAdjust="spacingAndGlyphs" textLength="25" x="451.5" y="64.1113">utils</text><rect fill="#FEFECE" filter="url(#f1vku30iamhygq)" height="31.6094" style="stroke: #A80036; stroke-width: 1.5;" width="39" x="444.5" y="761.6797"/><text fill="#000000" font-family="sans-serif" font-size="14" lengthAdjust="spacingAndGlyphs" textLength="25" x="451.5" y="783.2129">utils</text><rect fill="#FEFECE" filter="url(#f1vku30iamhygq)" height="31.6094" style="stroke: #A80036; stroke-width: 1.5;" width="157" x="497.5" y="42.5781"/><text fill="#000000" font-family="sans-serif" font-size="14" lengthAdjust="spacingAndGlyphs" textLength="143" x="504.5" y="64.1113">MinorGroupRepository</text><rect fill="#FEFECE" filter="url(#f1vku30iamhygq)" height="31.6094" style="stroke: #A80036; stroke-width: 1.5;" width="157" x="497.5" y="761.6797"/><text fill="#000000" font-family="sans-serif" font-size="14" lengthAdjust="spacingAndGlyphs" textLength="143" x="504.5" y="783.2129">MinorGroupRepository</text><rect fill="#FFFFFF" filter="url(#f1vku30iamhygq)" height="551.3828" style="stroke: #A80036; stroke-width: 1.0;" width="10" x="212" y="193.2969"/><rect fill="#FFFFFF" filter="url(#f1vku30iamhygq)" height="344.8672" style="stroke: #A80036; stroke-width: 1.0;" width="10" x="217" y="231.6484"/><rect fill="#FFFFFF" filter="url(#f1vku30iamhygq)" height="30.3516" style="stroke: #A80036; stroke-width: 1.0;" width="10" x="461" y="267"/><rect fill="#FFFFFF" filter="url(#f1vku30iamhygq)" height="30.3516" style="stroke: #A80036; stroke-width: 1.0;" width="10" x="461" y="327.7031"/><rect fill="#FFFFFF" filter="url(#f1vku30iamhygq)" height="30.3516" style="stroke: #A80036; stroke-width: 1.0;" width="10" x="461" y="388.4063"/><rect fill="#FFFFFF" filter="url(#f1vku30iamhygq)" height="30.3516" style="stroke: #A80036; stroke-width: 1.0;" width="10" x="461" y="449.1094"/><rect fill="#FFFFFF" filter="url(#f1vku30iamhygq)" height="30.3516" style="stroke: #A80036; stroke-width: 1.0;" width="10" x="573" y="509.8125"/><polygon fill="#A80036" points="200,189.2969,210,193.2969,200,197.2969,204,193.2969" style="stroke: #A80036; stroke-width: 1.0;"/><line style="stroke: #A80036; stroke-width: 1.0;" x1="49" x2="206" y1="193.2969" y2="193.2969"/><text fill="#000000" font-family="sans-serif" font-size="13" lengthAdjust="spacingAndGlyphs" textLength="124" x="56" y="106.6826">[GET] /api/v2/leagues</text><text fill="#000000" font-family="sans-serif" font-size="13" lengthAdjust="spacingAndGlyphs" textLength="93" x="56" y="123.0342">[{sports: [1,2,3],</text><text fill="#000000" font-family="sans-serif" font-size="13" lengthAdjust="spacingAndGlyphs" textLength="94" x="56" y="139.3857">countries[1,2,3],</text><text fill="#000000" font-family="sans-serif" font-size="13" lengthAdjust="spacingAndGlyphs" textLength="43" x="56" y="155.7373">limit: 5,</text><text fill="#000000" font-family="sans-serif" font-size="13" lengthAdjust="spacingAndGlyphs" textLength="46" x="56" y="172.0889">offset:1}</text><text fill="#000000" font-family="sans-serif" font-size="13" lengthAdjust="spacingAndGlyphs" textLength="4" x="56" y="188.4404">]</text><line style="stroke: #A80036; stroke-width: 1.0;" x1="222" x2="269" y1="218.6484" y2="218.6484"/><line style="stroke: #A80036; stroke-width: 1.0;" x1="269" x2="269" y1="218.6484" y2="231.6484"/><line style="stroke: #A80036; stroke-width: 1.0;" x1="228" x2="269" y1="231.6484" y2="231.6484"/><polygon fill="#A80036" points="238,227.6484,228,231.6484,238,235.6484,234,231.6484" style="stroke: #A80036; stroke-width: 1.0;"/><text fill="#000000" font-family="sans-serif" font-size="13" lengthAdjust="spacingAndGlyphs" textLength="90" x="234" y="213.792">getAllLeagues()</text><polygon fill="#A80036" points="449,263,459,267,449,271,453,267" style="stroke: #A80036; stroke-width: 1.0;"/><line style="stroke: #A80036; stroke-width: 1.0;" x1="227" x2="455" y1="267" y2="267"/><text fill="#000000" font-family="sans-serif" font-size="13" lengthAdjust="spacingAndGlyphs" textLength="198" x="234" y="262.1436">getUUIDValues(req.query, 'sports')</text><polygon fill="#A80036" points="238,293.3516,228,297.3516,238,301.3516,234,297.3516" style="stroke: #A80036; stroke-width: 1.0;"/><line style="stroke: #A80036; stroke-width: 1.0; stroke-dasharray: 2.0,2.0;" x1="232" x2="465" y1="297.3516" y2="297.3516"/><text fill="#000000" font-family="sans-serif" font-size="13" lengthAdjust="spacingAndGlyphs" textLength="36" x="244" y="292.4951">sports</text><polygon fill="#A80036" points="449,323.7031,459,327.7031,449,331.7031,453,327.7031" style="stroke: #A80036; stroke-width: 1.0;"/><line style="stroke: #A80036; stroke-width: 1.0;" x1="227" x2="455" y1="327.7031" y2="327.7031"/><text fill="#000000" font-family="sans-serif" font-size="13" lengthAdjust="spacingAndGlyphs" textLength="215" x="234" y="322.8467">getUUIDValues(req.query, 'countries')</text><polygon fill="#A80036" points="238,354.0547,228,358.0547,238,362.0547,234,358.0547" style="stroke: #A80036; stroke-width: 1.0;"/><line style="stroke: #A80036; stroke-width: 1.0; stroke-dasharray: 2.0,2.0;" x1="232" x2="465" y1="358.0547" y2="358.0547"/><text fill="#000000" font-family="sans-serif" font-size="13" lengthAdjust="spacingAndGlyphs" textLength="53" x="244" y="353.1982">countries</text><polygon fill="#A80036" points="449,384.4063,459,388.4063,449,392.4063,453,388.4063" style="stroke: #A80036; stroke-width: 1.0;"/><line style="stroke: #A80036; stroke-width: 1.0;" x1="227" x2="455" y1="388.4063" y2="388.4063"/><text fill="#000000" font-family="sans-serif" font-size="13" lengthAdjust="spacingAndGlyphs" textLength="199" x="234" y="383.5498">getIntegerValues(req.query, 'limit');</text><polygon fill="#A80036" points="238,414.7578,228,418.7578,238,422.7578,234,418.7578" style="stroke: #A80036; stroke-width: 1.0;"/><line style="stroke: #A80036; stroke-width: 1.0; stroke-dasharray: 2.0,2.0;" x1="232" x2="465" y1="418.7578" y2="418.7578"/><text fill="#000000" font-family="sans-serif" font-size="13" lengthAdjust="spacingAndGlyphs" textLength="24" x="244" y="413.9014">limit</text><polygon fill="#A80036" points="449,445.1094,459,449.1094,449,453.1094,453,449.1094" style="stroke: #A80036; stroke-width: 1.0;"/><line style="stroke: #A80036; stroke-width: 1.0;" x1="227" x2="455" y1="449.1094" y2="449.1094"/><text fill="#000000" font-family="sans-serif" font-size="13" lengthAdjust="spacingAndGlyphs" textLength="202" x="234" y="444.2529">getIntegerValues(req.query, 'offset')</text><polygon fill="#A80036" points="238,475.4609,228,479.4609,238,483.4609,234,479.4609" style="stroke: #A80036; stroke-width: 1.0;"/><line style="stroke: #A80036; stroke-width: 1.0; stroke-dasharray: 2.0,2.0;" x1="232" x2="465" y1="479.4609" y2="479.4609"/><text fill="#000000" font-family="sans-serif" font-size="13" lengthAdjust="spacingAndGlyphs" textLength="31" x="244" y="474.6045">offset</text><polygon fill="#A80036" points="561,505.8125,571,509.8125,561,513.8125,565,509.8125" style="stroke: #A80036; stroke-width: 1.0;"/><line style="stroke: #A80036; stroke-width: 1.0;" x1="227" x2="567" y1="509.8125" y2="509.8125"/><text fill="#000000" font-family="sans-serif" font-size="13" lengthAdjust="spacingAndGlyphs" textLength="283" x="234" y="504.9561">getAllMinorGroups(sports, countries, limit, offset)</text><polygon fill="#A80036" points="238,536.1641,228,540.1641,238,544.1641,234,540.1641" style="stroke: #A80036; stroke-width: 1.0;"/><line style="stroke: #A80036; stroke-width: 1.0; stroke-dasharray: 2.0,2.0;" x1="232" x2="577" y1="540.1641" y2="540.1641"/><text fill="#000000" font-family="sans-serif" font-size="13" lengthAdjust="spacingAndGlyphs" textLength="45" x="244" y="535.3076">leagues</text><line style="stroke: #A80036; stroke-width: 1.0; stroke-dasharray: 2.0,2.0;" x1="227" x2="269" y1="575.5156" y2="575.5156"/><line style="stroke: #A80036; stroke-width: 1.0; stroke-dasharray: 2.0,2.0;" x1="269" x2="269" y1="575.5156" y2="588.5156"/><line style="stroke: #A80036; stroke-width: 1.0; stroke-dasharray: 2.0,2.0;" x1="222" x2="269" y1="588.5156" y2="588.5156"/><polygon fill="#A80036" points="232,584.5156,222,588.5156,232,592.5156,228,588.5156" style="stroke: #A80036; stroke-width: 1.0;"/><text fill="#000000" font-family="sans-serif" font-size="13" lengthAdjust="spacingAndGlyphs" textLength="45" x="234" y="570.6592">leagues</text><polygon fill="#A80036" points="60,740.6797,50,744.6797,60,748.6797,56,744.6797" style="stroke: #A80036; stroke-width: 1.0;"/><line style="stroke: #A80036; stroke-width: 1.0; stroke-dasharray: 2.0,2.0;" x1="54" x2="216" y1="744.6797" y2="744.6797"/><text fill="#000000" font-family="sans-serif" font-size="13" lengthAdjust="spacingAndGlyphs" textLength="49" x="66" y="609.0107">leagues:</text><text fill="#000000" font-family="sans-serif" font-size="13" lengthAdjust="spacingAndGlyphs" textLength="8" x="70" y="625.3623">[{</text><text fill="#000000" font-family="sans-serif" font-size="13" lengthAdjust="spacingAndGlyphs" textLength="91" x="66" y="641.7139">publicId: xxxxx,</text><text fill="#000000" font-family="sans-serif" font-size="13" lengthAdjust="spacingAndGlyphs" textLength="81" x="66" y="658.0654">seassonId:18,</text><text fill="#000000" font-family="sans-serif" font-size="13" lengthAdjust="spacingAndGlyphs" textLength="65" x="66" y="674.417">name: xxx,</text><text fill="#000000" font-family="sans-serif" font-size="13" lengthAdjust="spacingAndGlyphs" textLength="90" x="66" y="690.7686">fullName: yyyy,</text><text fill="#000000" font-family="sans-serif" font-size="13" lengthAdjust="spacingAndGlyphs" textLength="63" x="66" y="707.1201">active:true,</text><text fill="#000000" font-family="sans-serif" font-size="13" lengthAdjust="spacingAndGlyphs" textLength="139" x="66" y="723.4717">StartDate: dd/mm/yyyy,</text><text fill="#000000" font-family="sans-serif" font-size="13" lengthAdjust="spacingAndGlyphs" textLength="138" x="66" y="739.8232">EndDate: dd/mm/yyyy}]</text><!--
@startuml
title <font color=red size=10>Consultar Leagues</font> 

boundary "WEB/Mobile" as ui order 5
control leagues as controller order 10
participant utils order 15
participant MinorGroupRepository as repo order 20

ui -> controller : [GET] /api/v2/leagues \n[{sports: [1,2,3],\ncountries[1,2,3],\nlimit: 5,\noffset:1}\n]
activate controller
controller -> controller : getAllLeagues()
activate controller
controller -> utils : getUUIDValues(req.query, 'sports')
activate utils
return sports

controller -> utils : getUUIDValues(req.query, 'countries')
activate utils
return countries

controller -> utils : getIntegerValues(req.query, 'limit');
activate utils
return limit

controller -> utils : getIntegerValues(req.query, 'offset')
activate utils
return offset

controller -> repo : getAllMinorGroups(sports, countries, limit, offset)
activate repo
return leagues

return leagues
return leagues:\n [{\npublicId: xxxxx,\nseassonId:18,\nname: xxx,\nfullName: yyyy,\nactive:true,\nStartDate: dd/mm/yyyy,\nEndDate: dd/mm/yyyy}]



@enduml

PlantUML version 1.2019.03(Sun Mar 10 07:04:44 BOT 2019)
(GPL source distribution)
Java Runtime: Java(TM) SE Runtime Environment
JVM: Java HotSpot(TM) Client VM
Java Version: 1.7.0_51-b13
Operating System: Windows 7
OS Version: 6.1
Default Encoding: Cp1252
Language: es
Country: VE
--></g></svg>