<?xml version="1.0" encoding="UTF-8" standalone="no"?><svg xmlns="http://www.w3.org/2000/svg" xmlns:xlink="http://www.w3.org/1999/xlink" contentScriptType="application/ecmascript" contentStyleType="text/css" height="498px" preserveAspectRatio="none" style="width:652px;height:498px;" version="1.1" viewBox="0 0 652 498" width="652px" zoomAndPan="magnify"><defs><filter height="300%" id="f10gmszh1x6cjc" width="300%" x="-1" y="-1"><feGaussianBlur result="blurOut" stdDeviation="2.0"/><feColorMatrix in="blurOut" result="blurOut2" type="matrix" values="0 0 0 0 0 0 0 0 0 0 0 0 0 0 0 0 0 0 .4 0"/><feOffset dx="4.0" dy="4.0" in="blurOut2" result="blurOut3"/><feBlend in="SourceGraphic" in2="blurOut3" mode="normal"/></filter></defs><g><text fill="#FF0000" font-family="sans-serif" font-size="15" font-weight="bold" lengthAdjust="spacingAndGlyphs" textLength="130" x="268" y="25.5713">Obtener Pick by Id</text><rect fill="#FFFFFF" filter="url(#f10gmszh1x6cjc)" height="305.5703" style="stroke: #A80036; stroke-width: 1.0;" width="10" x="201" y="117.8281"/><rect fill="#FFFFFF" filter="url(#f10gmszh1x6cjc)" height="223.1914" style="stroke: #A80036; stroke-width: 1.0;" width="10" x="206" y="162.8555"/><rect fill="#FFFFFF" filter="url(#f10gmszh1x6cjc)" height="144.8125" style="stroke: #A80036; stroke-width: 1.0;" width="10" x="417" y="204.8828"/><line style="stroke: #A80036; stroke-width: 1.0; stroke-dasharray: 5.0,5.0;" x1="49" x2="49" y1="85.4766" y2="441.3984"/><line style="stroke: #A80036; stroke-width: 1.0; stroke-dasharray: 5.0,5.0;" x1="206" x2="206" y1="85.4766" y2="441.3984"/><line style="stroke: #A80036; stroke-width: 1.0; stroke-dasharray: 5.0,5.0;" x1="421.5" x2="421.5" y1="85.4766" y2="441.3984"/><text fill="#000000" font-family="sans-serif" font-size="14" lengthAdjust="spacingAndGlyphs" textLength="76" x="8" y="82.4004">WEB/Mobile</text><path d="M28.5,39.8672 L28.5,63.8672 M28.5,51.8672 L45.5,51.8672 " fill="none" filter="url(#f10gmszh1x6cjc)" style="stroke: #A80036; stroke-width: 2.0;"/><ellipse cx="57.5" cy="51.8672" fill="#FEFECE" filter="url(#f10gmszh1x6cjc)" rx="12" ry="12" style="stroke: #A80036; stroke-width: 2.0;"/><text fill="#000000" font-family="sans-serif" font-size="14" lengthAdjust="spacingAndGlyphs" textLength="76" x="8" y="454.9316">WEB/Mobile</text><path d="M28.5,462.0078 L28.5,486.0078 M28.5,474.0078 L45.5,474.0078 " fill="none" filter="url(#f10gmszh1x6cjc)" style="stroke: #A80036; stroke-width: 2.0;"/><ellipse cx="57.5" cy="474.0078" fill="#FEFECE" filter="url(#f10gmszh1x6cjc)" rx="12" ry="12" style="stroke: #A80036; stroke-width: 2.0;"/><text fill="#000000" font-family="sans-serif" font-size="14" lengthAdjust="spacingAndGlyphs" textLength="80" x="163" y="82.4004">PicksKitchen</text><ellipse cx="206" cy="51.8672" fill="#FEFECE" filter="url(#f10gmszh1x6cjc)" rx="12" ry="12" style="stroke: #A80036; stroke-width: 2.0;"/><polygon fill="#A80036" points="202,39.8672,208,34.8672,206,39.8672,208,44.8672,202,39.8672" style="stroke: #A80036; stroke-width: 1.0;"/><text fill="#000000" font-family="sans-serif" font-size="14" lengthAdjust="spacingAndGlyphs" textLength="80" x="163" y="454.9316">PicksKitchen</text><ellipse cx="206" cy="474.0078" fill="#FEFECE" filter="url(#f10gmszh1x6cjc)" rx="12" ry="12" style="stroke: #A80036; stroke-width: 2.0;"/><polygon fill="#A80036" points="202,462.0078,208,457.0078,206,462.0078,208,467.0078,202,462.0078" style="stroke: #A80036; stroke-width: 1.0;"/><rect fill="#FEFECE" filter="url(#f10gmszh1x6cjc)" height="31.6094" style="stroke: #A80036; stroke-width: 1.5;" width="207" x="316.5" y="48.8672"/><text fill="#000000" font-family="sans-serif" font-size="14" lengthAdjust="spacingAndGlyphs" textLength="193" x="323.5" y="70.4004">customPicksKitchenRepository</text><rect fill="#FEFECE" filter="url(#f10gmszh1x6cjc)" height="31.6094" style="stroke: #A80036; stroke-width: 1.5;" width="207" x="316.5" y="440.3984"/><text fill="#000000" font-family="sans-serif" font-size="14" lengthAdjust="spacingAndGlyphs" textLength="193" x="323.5" y="461.9316">customPicksKitchenRepository</text><rect fill="#FFFFFF" filter="url(#f10gmszh1x6cjc)" height="305.5703" style="stroke: #A80036; stroke-width: 1.0;" width="10" x="201" y="117.8281"/><rect fill="#FFFFFF" filter="url(#f10gmszh1x6cjc)" height="223.1914" style="stroke: #A80036; stroke-width: 1.0;" width="10" x="206" y="162.8555"/><rect fill="#FFFFFF" filter="url(#f10gmszh1x6cjc)" height="144.8125" style="stroke: #A80036; stroke-width: 1.0;" width="10" x="417" y="204.8828"/><polygon fill="#A80036" points="189,113.8281,199,117.8281,189,121.8281,193,117.8281" style="stroke: #A80036; stroke-width: 1.0;"/><line style="stroke: #A80036; stroke-width: 1.0;" x1="49" x2="195" y1="117.8281" y2="117.8281"/><text fill="#000000" font-family="sans-serif" font-size="13" lengthAdjust="spacingAndGlyphs" textLength="133" x="56" y="112.9717">[GET] /api/v2/pick/:id {}</text><line style="stroke: #A80036; stroke-width: 1.0;" x1="211" x2="258" y1="149.8555" y2="149.8555"/><line style="stroke: #A80036; stroke-width: 1.0;" x1="258" x2="258" y1="149.8555" y2="162.8555"/><line style="stroke: #A80036; stroke-width: 1.0;" x1="217" x2="258" y1="162.8555" y2="162.8555"/><polygon fill="#A80036" points="227,158.8555,217,162.8555,227,166.8555,223,162.8555" style="stroke: #A80036; stroke-width: 1.0;"/><text fill="#000000" font-family="sans-serif" font-size="13" lengthAdjust="spacingAndGlyphs" textLength="102" x="223" y="144.999">getOnePickById()</text><path d="M337,130.8281 L337,172.8281 L640,172.8281 L640,140.8281 L630,130.8281 L337,130.8281 " fill="#FBFB77" filter="url(#f10gmszh1x6cjc)" style="stroke: #A80036; stroke-width: 1.0;"/><path d="M630,130.8281 L630,140.8281 L640,140.8281 L630,130.8281 " fill="#FBFB77" style="stroke: #A80036; stroke-width: 1.0;"/><text fill="#000000" font-family="sans-serif" font-size="13" lengthAdjust="spacingAndGlyphs" textLength="112" x="343" y="149.3232">Es posible mejorar.</text><text fill="#000000" font-family="sans-serif" font-size="13" lengthAdjust="spacingAndGlyphs" textLength="278" x="347" y="165.6748">pickID = req.url.split('/')[req.url.split('/').length - 1]</text><polygon fill="#A80036" points="405,200.8828,415,204.8828,405,208.8828,409,204.8828" style="stroke: #A80036; stroke-width: 1.0;"/><line style="stroke: #A80036; stroke-width: 1.0;" x1="216" x2="411" y1="204.8828" y2="204.8828"/><text fill="#000000" font-family="sans-serif" font-size="13" lengthAdjust="spacingAndGlyphs" textLength="116" x="223" y="200.0264">findPickById(pickID)</text><polygon fill="#A80036" points="227,345.6953,217,349.6953,227,353.6953,223,349.6953" style="stroke: #A80036; stroke-width: 1.0;"/><line style="stroke: #A80036; stroke-width: 1.0; stroke-dasharray: 2.0,2.0;" x1="221" x2="421" y1="349.6953" y2="349.6953"/><text fill="#000000" font-family="sans-serif" font-size="13" lengthAdjust="spacingAndGlyphs" textLength="40" x="233" y="230.3779">{pick: {</text><text fill="#000000" font-family="sans-serif" font-size="13" lengthAdjust="spacingAndGlyphs" textLength="77" x="241" y="246.7295">publicId: xxx,</text><text fill="#000000" font-family="sans-serif" font-size="13" lengthAdjust="spacingAndGlyphs" textLength="133" x="241" y="263.0811">startDate:dd/mm/yyyy,</text><text fill="#000000" font-family="sans-serif" font-size="13" lengthAdjust="spacingAndGlyphs" textLength="169" x="241" y="279.4326">publicationDate:dd/mm/yyyy,</text><text fill="#000000" font-family="sans-serif" font-size="13" lengthAdjust="spacingAndGlyphs" textLength="118" x="241" y="295.7842">availableMatches: 1,</text><text fill="#000000" font-family="sans-serif" font-size="13" lengthAdjust="spacingAndGlyphs" textLength="0" x="245" y="312.1357"/><text fill="#000000" font-family="sans-serif" font-size="13" lengthAdjust="spacingAndGlyphs" textLength="4" x="241" y="328.4873">}</text><text fill="#000000" font-family="sans-serif" font-size="13" lengthAdjust="spacingAndGlyphs" textLength="4" x="233" y="344.8389">}</text><line style="stroke: #A80036; stroke-width: 1.0; stroke-dasharray: 2.0,2.0;" x1="216" x2="258" y1="385.0469" y2="385.0469"/><line style="stroke: #A80036; stroke-width: 1.0; stroke-dasharray: 2.0,2.0;" x1="258" x2="258" y1="385.0469" y2="398.0469"/><line style="stroke: #A80036; stroke-width: 1.0; stroke-dasharray: 2.0,2.0;" x1="211" x2="258" y1="398.0469" y2="398.0469"/><polygon fill="#A80036" points="221,394.0469,211,398.0469,221,402.0469,217,398.0469" style="stroke: #A80036; stroke-width: 1.0;"/><text fill="#000000" font-family="sans-serif" font-size="13" lengthAdjust="spacingAndGlyphs" textLength="38" x="223" y="380.1904">Pick {}</text><polygon fill="#A80036" points="60,419.3984,50,423.3984,60,427.3984,56,423.3984" style="stroke: #A80036; stroke-width: 1.0;"/><line style="stroke: #A80036; stroke-width: 1.0; stroke-dasharray: 2.0,2.0;" x1="54" x2="205" y1="423.3984" y2="423.3984"/><text fill="#000000" font-family="sans-serif" font-size="13" lengthAdjust="spacingAndGlyphs" textLength="53" x="66" y="418.542">response</text><!--
@startuml

title <font color=red size=15> Obtener Pick by Id</font>
 
boundary "WEB/Mobile" as ui
control PicksKitchen as controlador
participant customPicksKitchenRepository as repo

ui -> controlador : [GET] /api/v2/pick/:id {}
activate controlador
controlador -> controlador : getOnePickById()
note right : Es posible mejorar.\n pickID = req.url.split('/')[req.url.split('/').length - 1]
activate controlador
controlador -> repo : findPickById(pickID)
activate repo
return  {pick: {\n  publicId: xxx,\n  startDate:dd/mm/yyyy,\n  publicationDate:dd/mm/yyyy,\n  availableMatches: 1,\n   \n  }\n}
return Pick {}
return response
@enduml

PlantUML version 1.2019.03(Sun Mar 10 07:04:44 BOT 2019)
(GPL source distribution)
Java Runtime: Java(TM) SE Runtime Environment
JVM: Java HotSpot(TM) Client VM
Java Version: 1.7.0_51-b13
Operating System: Windows 7
OS Version: 6.1
Default Encoding: Cp1252
Language: es
Country: VE
--></g></svg>